<svg width="143" height="138" viewBox="0 0 143 138" fill="none" xmlns="http://www.w3.org/2000/svg">
<path d="M22.0055 10.865V16.472C22.0055 17.3679 21.6496 18.227 21.0161 18.8605C20.3827 19.4939 19.5236 19.8498 18.6277 19.8498C17.7319 19.8498 16.8727 19.4939 16.2393 18.8605C15.6058 18.227 15.25 17.3679 15.25 16.472V5.21294C15.25 4.31711 15.6058 3.45802 16.2393 2.82457C16.8727 2.19112 17.7319 1.83521 18.6277 1.83521C19.5236 1.83521 20.3827 2.19112 21.0161 2.82457C21.6496 3.45802 22.0055 4.31711 22.0055 5.21294V10.865Z" fill="#FFD985" stroke="#211E1D" stroke-width="2" stroke-linecap="round" stroke-linejoin="round"/>
<path d="M35.4707 28.8347H1.69336V109.72H78.7507C78.2654 107.501 78.0238 105.236 78.0301 102.965C78.0301 102.582 78.0301 102.177 78.0301 101.794H78.6831C78.9381 97.9353 79.7809 94.1385 81.1826 90.5346H80.5747C83.0025 84.8758 87.0345 80.0519 92.1727 76.6584C97.3109 73.265 103.33 71.4505 109.488 71.4391V46.0837" fill="#FFD985"/>
<path d="M35.4707 28.8347H1.69336V109.72H78.7507C78.2654 107.501 78.0238 105.236 78.0301 102.965C78.0301 102.582 78.0301 102.177 78.0301 101.794H78.6831C78.9381 97.9353 79.7809 94.1385 81.1826 90.5346H80.5747C83.0025 84.8758 87.0345 80.0519 92.1727 76.6584C97.3109 73.265 103.33 71.4505 109.488 71.4391V46.0837" stroke="#211E1D" stroke-width="2" stroke-linecap="round" stroke-linejoin="round"/>
<path d="M10 29H109V59L10 29Z" fill="#FFBC4B"/>
<path d="M20.8802 72.655H9.64355V83.8916H20.8802V72.655Z" fill="white" stroke="#231F20" stroke-linecap="round" stroke-linejoin="round"/>
<path d="M81.5882 72.655H70.3516V83.8916H81.5882V72.655Z" fill="#FFBC4B" stroke="#231F20" stroke-linecap="round" stroke-linejoin="round"/>
<path d="M81.5452 54.6855H70.3086V65.9222H81.5452V54.6855Z" fill="white" stroke="#231F20" stroke-linecap="round" stroke-linejoin="round"/>
<path d="M41.1018 72.655H29.8652V83.8916H41.1018V72.655Z" fill="white" stroke="#231F20" stroke-linecap="round" stroke-linejoin="round"/>
<path d="M81.5452 36.6935H70.3086V47.93H81.5452V36.6935Z" fill="white" stroke="#231F20" stroke-linecap="round" stroke-linejoin="round"/>
<path d="M41.1018 90.6245H29.8652V101.861H41.1018V90.6245Z" fill="white" stroke="#231F20" stroke-linecap="round" stroke-linejoin="round"/>
<path d="M41.1018 36.6935H29.8652V47.93H41.1018V36.6935Z" fill="white" stroke="#231F20" stroke-linecap="round" stroke-linejoin="round"/>
<path d="M101.765 36.6935H90.5283V47.93H101.765V36.6935Z" fill="white" stroke="#231F20" stroke-linecap="round" stroke-linejoin="round"/>
<path d="M61.3215 72.655H50.085V83.8916H61.3215V72.655Z" fill="white" stroke="#231F20" stroke-linecap="round" stroke-linejoin="round"/>
<path d="M20.8802 54.6855H9.64355V65.9222H20.8802V54.6855Z" fill="#FFBC4B" stroke="#231F20" stroke-linecap="round" stroke-linejoin="round"/>
<path d="M20.8802 90.6245H9.64355V101.861H20.8802V90.6245Z" fill="white" stroke="#231F20" stroke-linecap="round" stroke-linejoin="round"/>
<path d="M70.4414 101.929H78.8857C79.1407 98.0702 79.9835 94.2734 81.3852 90.6696H70.4414V101.929Z" fill="white" stroke="#231F20" stroke-linecap="round" stroke-linejoin="round"/>
<path d="M101.765 54.6855H90.5283V65.9222H101.765V54.6855Z" fill="white" stroke="#231F20" stroke-linecap="round" stroke-linejoin="round"/>
<path d="M20.8802 36.6935H9.64355V47.93H20.8802V36.6935Z" fill="white" stroke="#231F20" stroke-linecap="round" stroke-linejoin="round"/>
<path d="M61.3215 54.6855H50.085V65.9222H61.3215V54.6855Z" fill="white" stroke="#231F20" stroke-linecap="round" stroke-linejoin="round"/>
<path d="M61.3215 90.6245H50.085V101.861H61.3215V90.6245Z" fill="white" stroke="#231F20" stroke-linecap="round" stroke-linejoin="round"/>
<path d="M41.1018 54.6855H29.8652V65.9222H41.1018V54.6855Z" fill="white" stroke="#231F20" stroke-linecap="round" stroke-linejoin="round"/>
<path d="M61.3215 36.6935H50.085V47.93H61.3215V36.6935Z" fill="white" stroke="#231F20" stroke-linecap="round" stroke-linejoin="round"/>
<path d="M138.245 88.7105C141.975 95.7532 142.969 103.926 141.035 111.658C139.102 119.389 134.378 126.132 127.772 130.59C121.166 135.048 113.145 136.905 105.252 135.805C97.359 134.705 90.1515 130.725 85.0161 124.631C79.8808 118.537 77.1804 110.759 77.4344 102.794C77.6884 94.8288 80.8789 87.2388 86.3921 81.4843C91.9053 75.7297 99.3518 72.2171 107.299 71.6223C115.246 71.0275 123.132 73.3923 129.441 78.262C131.36 79.7578 133.111 81.4565 134.665 83.3286" fill="#FFBC4B"/>
<path d="M138.245 88.7105C141.975 95.7532 142.969 103.926 141.035 111.658C139.102 119.389 134.378 126.132 127.772 130.59C121.166 135.048 113.145 136.905 105.252 135.805C97.359 134.705 90.1515 130.725 85.0161 124.631C79.8808 118.537 77.1804 110.759 77.4344 102.794C77.6884 94.8288 80.8789 87.2388 86.3921 81.4843C91.9053 75.7297 99.3518 72.2171 107.299 71.6223C115.246 71.0275 123.132 73.3923 129.441 78.262C131.36 79.7578 133.111 81.4565 134.665 83.3286" stroke="#211E1D" stroke-width="2" stroke-linecap="round" stroke-linejoin="round"/>
<path d="M96.1588 10.865V16.472C96.1588 17.3679 95.8029 18.227 95.1694 18.8605C94.536 19.4939 93.6769 19.8498 92.7811 19.8498C91.8852 19.8498 91.0261 19.4939 90.3926 18.8605C89.7592 18.227 89.4033 17.3679 89.4033 16.472V5.21294C89.4033 4.31711 89.7592 3.45802 90.3926 2.82457C91.0261 2.19112 91.8852 1.83521 92.7811 1.83521C93.6769 1.83521 94.536 2.19112 95.1694 2.82457C95.8029 3.45802 96.1588 4.31711 96.1588 5.21294V10.865Z" fill="#FFD985" stroke="#211E1D" stroke-width="2" stroke-linecap="round" stroke-linejoin="round"/>
<path d="M46.7086 10.865V16.472C46.7086 17.3679 46.3527 18.227 45.7193 18.8605C45.0858 19.4939 44.2267 19.8498 43.3309 19.8498C42.435 19.8498 41.5759 19.4939 40.9424 18.8605C40.309 18.227 39.9531 17.3679 39.9531 16.472V5.21294C39.9531 4.31711 40.309 3.45802 40.9424 2.82457C41.5759 2.19112 42.435 1.83521 43.3309 1.83521C44.2267 1.83521 45.0858 2.19112 45.7193 2.82457C46.3527 3.45802 46.7086 4.31711 46.7086 5.21294V10.865Z" fill="#FFD985" stroke="#211E1D" stroke-width="2" stroke-linecap="round" stroke-linejoin="round"/>
<path d="M71.4342 10.865V16.472C71.4342 17.3679 71.0783 18.227 70.4448 18.8605C69.8114 19.4939 68.9523 19.8498 68.0564 19.8498C67.1606 19.8498 66.3015 19.4939 65.668 18.8605C65.0346 18.227 64.6787 17.3679 64.6787 16.472V5.21294C64.6787 4.31711 65.0346 3.45802 65.668 2.82457C66.3015 2.19112 67.1606 1.83521 68.0564 1.83521C68.9523 1.83521 69.8114 2.19112 70.4448 2.82457C71.0783 3.45802 71.4342 4.31711 71.4342 5.21294V10.865Z" fill="#FFD985" stroke="#211E1D" stroke-width="2" stroke-linecap="round" stroke-linejoin="round"/>
<path d="M35.4707 28.8346H1.69336V15.3237C1.69336 14.1293 2.16785 12.9837 3.01244 12.1392C3.85704 11.2946 5.00256 10.8201 6.197 10.8201H15.2043V16.4271C15.2043 17.3229 15.5601 18.1821 16.1936 18.8155C16.827 19.449 17.6862 19.8048 18.582 19.8048C19.4779 19.8048 20.337 19.449 20.9704 18.8155C21.6039 18.1821 21.9598 17.3229 21.9598 16.4271V10.8201H39.9743V16.4271C39.9743 17.3229 40.3302 18.1821 40.9636 18.8155C41.5971 19.449 42.4562 19.8048 43.3521 19.8048C44.2479 19.8048 45.107 19.449 45.7405 18.8155C46.3739 18.1821 46.7298 17.3229 46.7298 16.4271V10.8201H64.7444V16.4271C64.7444 17.3229 65.1002 18.1821 65.7337 18.8155C66.3671 19.449 67.2263 19.8048 68.1221 19.8048C69.0179 19.8048 69.8771 19.449 70.5105 18.8155C71.144 18.1821 71.4998 17.3229 71.4998 16.4271V10.8201H89.5144V16.4271C89.5144 17.3229 89.8703 18.1821 90.5037 18.8155C91.1372 19.449 91.9963 19.8048 92.8921 19.8048C93.788 19.8048 94.6471 19.449 95.2806 18.8155C95.914 18.1821 96.2699 17.3229 96.2699 16.4271V10.8201H105.277C106.472 10.8201 107.617 11.2946 108.462 12.1392C109.306 12.9837 109.781 14.1293 109.781 15.3237V28.8346H43.4196" fill="#FFBC4B"/>
<path d="M35.4707 28.8346H1.69336V15.3237C1.69336 14.1293 2.16785 12.9837 3.01244 12.1392C3.85704 11.2946 5.00256 10.8201 6.197 10.8201H15.2043V16.4271C15.2043 17.3229 15.5601 18.1821 16.1936 18.8155C16.827 19.449 17.6862 19.8048 18.582 19.8048C19.4779 19.8048 20.337 19.449 20.9704 18.8155C21.6039 18.1821 21.9598 17.3229 21.9598 16.4271V10.8201H39.9743V16.4271C39.9743 17.3229 40.3302 18.1821 40.9636 18.8155C41.5971 19.449 42.4562 19.8048 43.3521 19.8048C44.2479 19.8048 45.107 19.449 45.7405 18.8155C46.3739 18.1821 46.7298 17.3229 46.7298 16.4271V10.8201H64.7444V16.4271C64.7444 17.3229 65.1002 18.1821 65.7337 18.8155C66.3671 19.449 67.2263 19.8048 68.1221 19.8048C69.0179 19.8048 69.8771 19.449 70.5105 18.8155C71.144 18.1821 71.4998 17.3229 71.4998 16.4271V10.8201H89.5144V16.4271C89.5144 17.3229 89.8703 18.1821 90.5037 18.8155C91.1372 19.449 91.9963 19.8048 92.8921 19.8048C93.788 19.8048 94.6471 19.449 95.2806 18.8155C95.914 18.1821 96.2699 17.3229 96.2699 16.4271V10.8201H105.277C106.472 10.8201 107.617 11.2946 108.462 12.1392C109.306 12.9837 109.781 14.1293 109.781 15.3237V28.8346H43.4196" stroke="#231F20" stroke-width="2" stroke-linecap="round" stroke-linejoin="round"/>
<path d="M109.646 38.9904L109.623 28.8347H50.085" fill="#FFD985"/>
<path d="M109.646 38.9904L109.623 28.8347H50.085" stroke="#211E1D" stroke-width="2" stroke-linecap="round" stroke-linejoin="round"/>
<path d="M100.256 105.059L93.275 107.468L88.0282 106.117C87.8703 106.073 87.7028 106.078 87.5479 106.132C87.3929 106.185 87.2578 106.284 87.1602 106.416C87.0627 106.547 87.0073 106.706 87.0015 106.869C86.9956 107.033 87.0396 107.195 87.1275 107.333L90.7979 113.638C90.8992 113.8 91.0517 113.924 91.2312 113.989C91.4108 114.054 91.6071 114.058 91.7887 113.998L94.8512 112.94L95.3241 112.827L112.798 106.455L111.988 120.889C111.979 121.019 112.001 121.15 112.054 121.269C112.106 121.389 112.187 121.494 112.288 121.576C112.39 121.657 112.51 121.713 112.638 121.739C112.766 121.764 112.898 121.759 113.023 121.722L117.527 120.439C117.668 120.403 117.797 120.329 117.9 120.226C118.003 120.123 118.077 119.994 118.113 119.853L122.459 102.964L131.241 99.6768C131.559 99.5672 131.836 99.3638 132.037 99.0933C132.237 98.8229 132.351 98.4981 132.363 98.1617C132.375 97.8253 132.285 97.4932 132.105 97.209C131.925 96.9247 131.663 96.7017 131.353 96.5693C129.975 95.8281 128.375 95.6121 126.85 95.9613C125.971 96.209 123.539 97.0197 120.342 98.1005L108.452 86.8414C108.349 86.743 108.222 86.6743 108.083 86.6426C107.944 86.6109 107.799 86.6174 107.664 86.6613L103.16 87.9449C103.036 87.9826 102.922 88.0491 102.828 88.1389C102.733 88.2287 102.661 88.3393 102.618 88.4619C102.574 88.5845 102.559 88.7157 102.575 88.8449C102.592 88.9741 102.638 89.0977 102.71 89.2059L111.222 101.186L104.466 103.437" fill="#FFD985"/>
<path d="M100.256 105.059L93.275 107.468L88.0282 106.117C87.8703 106.073 87.7028 106.078 87.5479 106.132C87.3929 106.185 87.2578 106.284 87.1602 106.416C87.0627 106.547 87.0073 106.706 87.0015 106.869C86.9956 107.033 87.0396 107.195 87.1275 107.333L90.7979 113.638C90.8992 113.8 91.0517 113.924 91.2312 113.989C91.4108 114.054 91.6071 114.058 91.7887 113.998L94.8512 112.94L95.3241 112.827L112.798 106.455L111.988 120.889C111.979 121.019 112.001 121.15 112.054 121.269C112.106 121.389 112.187 121.494 112.288 121.576C112.39 121.657 112.51 121.713 112.638 121.739C112.766 121.764 112.898 121.759 113.023 121.722L117.527 120.439C117.668 120.403 117.797 120.329 117.9 120.226C118.003 120.123 118.077 119.994 118.113 119.853L122.459 102.964L131.241 99.6768C131.559 99.5672 131.836 99.3638 132.037 99.0933C132.237 98.8229 132.351 98.4981 132.363 98.1617C132.375 97.8253 132.285 97.4932 132.105 97.209C131.925 96.9247 131.663 96.7017 131.353 96.5693C129.975 95.8281 128.375 95.6121 126.85 95.9613C125.971 96.209 123.539 97.0197 120.342 98.1005L108.452 86.8414C108.349 86.743 108.222 86.6743 108.083 86.6426C107.944 86.6109 107.799 86.6174 107.664 86.6613L103.16 87.9449C103.036 87.9826 102.922 88.0491 102.828 88.1389C102.733 88.2287 102.661 88.3393 102.618 88.4619C102.574 88.5845 102.559 88.7157 102.575 88.8449C102.592 88.9741 102.638 89.0977 102.71 89.2059L111.222 101.186L104.466 103.437" stroke="#231F20" stroke-width="2" stroke-linecap="round" stroke-linejoin="round"/>
</svg>
