<svg width="136" height="92" viewBox="0 0 136 92" fill="none" xmlns="http://www.w3.org/2000/svg">
<path d="M35.171 12.4771C44.7103 5.6481 56.1516 1.98372 67.8833 2.00005C82.8235 2.00005 97.1518 7.93503 107.716 18.4994C118.28 29.0637 124.215 43.3919 124.215 58.3322V88.544H11.5719V58.3322C11.5469 44.1858 16.8688 30.5526 26.4712 20.1644C27.7937 18.7385 29.1989 17.3746 30.6041 16.0314" fill="#F2C975"/>
<path d="M35.171 12.4771C44.7103 5.6481 56.1516 1.98372 67.8833 2.00005C82.8235 2.00005 97.1518 7.93503 107.716 18.4994C118.28 29.0637 124.215 43.3919 124.215 58.3322V88.544H11.5719V58.3322C11.5469 44.1858 16.8688 30.5526 26.4712 20.1644C27.7937 18.7385 29.1989 17.3746 30.6041 16.0314" stroke="#231F20" stroke-width="3" stroke-linecap="round" stroke-linejoin="round"/>
<path d="M67.8828 86.7875H97.6814L67.8828 16.5274V86.7875Z" fill="#F2C975"/>
<path d="M50.0506 36.0969H31.163C28.6864 36.0969 26.6787 38.1045 26.6787 40.5811V57.6915C26.6787 60.1681 28.6864 62.1758 31.163 62.1758H50.0506C52.5271 62.1758 54.5348 60.1681 54.5348 57.6915V40.5811C54.5348 38.1045 52.5271 36.0969 50.0506 36.0969Z" fill="#FFB63B" stroke="#231F20" stroke-width="2" stroke-miterlimit="10"/>
<path d="M51.9711 37.9154H29.2605C28.2448 37.9154 27.4214 38.7389 27.4214 39.7546V44.7761C27.4214 45.7919 28.2448 46.6153 29.2605 46.6153H51.9711C52.9869 46.6153 53.8103 45.7919 53.8103 44.7761V39.7546C53.8103 38.7389 52.9869 37.9154 51.9711 37.9154Z" fill="#FFB63B" stroke="#231F20" stroke-width="2" stroke-miterlimit="10"/>
<path d="M11.5716 73.8928L2.52051 80.1128" stroke="#231F20" stroke-width="2" stroke-linecap="round" stroke-linejoin="round"/>
<path d="M2.6244 75.3806H1.07454C0.481077 75.3806 0 75.8617 0 76.4552V89.1227C0 89.7161 0.481077 90.1973 1.07454 90.1973H2.6244C3.21787 90.1973 3.69898 89.7161 3.69898 89.1227V76.4552C3.69898 75.8617 3.21787 75.3806 2.6244 75.3806Z" fill="#231F20"/>
<path d="M124.214 72.7148L133.266 78.9349" stroke="#231F20" stroke-width="2" stroke-linecap="round" stroke-linejoin="round"/>
<path d="M133.164 88.9987H134.713C135.307 88.9987 135.788 88.5175 135.788 87.9241V75.2566C135.788 74.6631 135.307 74.182 134.713 74.182H133.164C132.57 74.182 132.089 74.6631 132.089 75.2566V87.9241C132.089 88.5175 132.57 88.9987 133.164 88.9987Z" fill="#231F20"/>
<path d="M91.4211 16.0728C89.1857 14.7207 86.8587 13.5261 84.457 12.4978" stroke="#231F20" stroke-width="2" stroke-linecap="round" stroke-linejoin="round"/>
<path d="M110.885 37.2748C107.405 29.7899 101.991 23.3695 95.2007 18.6765" stroke="#231F20" stroke-width="2" stroke-linecap="round" stroke-linejoin="round"/>
<path d="M86.2331 59.82L98.4253 88.5647L114.44 72.2602L67.8828 16.5274L81.3356 48.2271" fill="#FFB63B"/>
<path d="M86.2331 59.82L98.4253 88.5647L114.44 72.2602L67.8828 16.5274L81.3356 48.2271" stroke="#231F20" stroke-width="2" stroke-linecap="round" stroke-linejoin="round"/>
<path d="M67.8828 88.5647V2.00003" stroke="#231F20" stroke-width="2" stroke-linecap="round" stroke-linejoin="round"/>
<path d="M125.456 87.0768H10.8286C10.121 87.0768 9.54736 87.6505 9.54736 88.3581V89.3706C9.54736 90.0782 10.121 90.6518 10.8286 90.6518H125.456C126.164 90.6518 126.737 90.0782 126.737 89.3706V88.3581C126.737 87.6505 126.164 87.0768 125.456 87.0768Z" fill="#7F727F" stroke="#231F20" stroke-width="2" stroke-miterlimit="10"/>
</svg>
