<svg width="1079" height="252" viewBox="0 0 1079 252" fill="none" xmlns="http://www.w3.org/2000/svg">
<g filter="url(#filter0_ddd)">
<path d="M106.539 167.249L108.125 167.235L108.112 164.466L104.515 164.504C103.879 163.237 103.284 161.998 102.69 160.759L105.527 160.732L105.501 158.899L101.817 158.925C94.913 143.975 91.3774 131.903 91.3774 131.903L89.4861 123.932L91.6756 123.909L91.6676 121.944L88.2737 121.964C88.2737 121.964 80.4877 81.7912 75.8498 45.3154L79.0435 45.2912L79.019 42.9448L76.6511 42.9665L76.5933 36.8218L73.6905 36.8397L72.2549 5.67455L71.1005 36.8544L68.1013 36.9266L68.1591 43.0713L66.1479 43.0955L66.1724 45.442L69.2535 45.4253C68.8487 49.5004 68.4161 53.6164 67.9178 57.7237L67.8929 57.7427L67.912 57.7676C64.0696 90.3774 58.0515 122.231 58.0486 122.253L54.9675 122.27L54.9755 124.235L57.165 124.212L55.4402 132.196C55.4402 132.196 52.1193 144.321 45.4442 159.373L42.0942 159.399L42.0976 161.229L44.5999 161.203C44.0341 162.445 43.4436 163.706 42.853 164.967L39.459 164.987L39.4723 167.756L41.1926 167.738L4.73947 225.941L34.646 225.699C34.646 225.699 38.8643 182.65 73.9757 182.359C109.087 182.069 113.981 225.05 113.981 225.05L143.887 224.808L106.539 167.249ZM73.4147 54.7905L74.4513 53.7001L75.7007 54.7133L74.5516 55.8111L73.4209 55.0814L73.4147 54.7905ZM73.4091 53.6516L73.4068 52.8255L73.8515 53.1744L73.4091 53.6516ZM73.3837 51.8182L73.3776 51.5273L74.3016 50.4444L75.4355 51.4869L74.3464 52.6373L73.3837 51.8182ZM73.3807 50.3226L73.3696 49.5624L73.7485 49.9026L73.3807 50.3226ZM71.7977 50.3142L71.4494 49.9111L71.8057 49.5788L71.7977 50.3142ZM71.8165 51.5218L71.8169 51.8566L70.8619 52.6677L69.7615 51.5403L70.8829 50.4834L71.8165 51.5218ZM71.8209 52.8391L71.8262 53.6432L71.415 53.2094L71.8209 52.8391ZM73.966 56.3585L73.4302 56.8679L73.4307 56.02L73.966 56.3585ZM73.4445 57.941L74.6433 56.8051L76.2244 57.8399L74.8522 59.4438L73.4329 58.0288L73.4445 57.941ZM74.3515 60.0248L73.4552 61.0668L73.4443 59.1238L74.3515 60.0248ZM73.8531 111.22L73.8457 111.108L78.1901 107.442L84.2893 111.261L79.4554 115.085L73.8531 111.22ZM78.829 115.605L73.9177 119.508L73.8629 112.159L78.829 115.605ZM73.8446 110.103L73.8007 104.697L77.51 107.017L73.8446 110.103ZM73.7909 103.758L73.7893 103.602L78.5484 99.4997L82.8562 102.524L78.1365 106.497L73.7909 103.758ZM73.7911 102.575L73.7329 96.0959L77.896 99.0341L73.7911 102.575ZM73.726 95.1354L73.7215 95.0008L77.1047 91.8551L81.7745 95.686L78.5005 98.5115L73.726 95.1354ZM73.7291 93.9307L73.6872 89.0155L76.5049 91.3295L73.7291 93.9307ZM73.6671 87.9863L73.6655 87.8298L76.922 85.136L80.4794 87.5925L77.0685 90.7791L73.6671 87.9863ZM73.6644 86.8254L73.6294 82.8708L76.2667 84.6923L73.6644 86.8254ZM73.6635 81.938L76.4847 79.4991L79.6197 81.9443L76.8903 84.1945L73.6635 81.938ZM73.6185 80.9278L73.5926 77.2421L75.8381 78.9896L73.6185 80.9278ZM73.6105 76.2626L75.8653 74.3959L78.709 76.5126L76.4646 78.4698L73.6105 76.2626ZM73.5627 75.2743L73.5482 72.6837L75.1939 73.9055L73.5627 75.2743ZM73.5442 71.7012L73.5351 71.4322L75.5239 69.5527L78.0255 71.5572L75.8203 73.3857L73.5442 71.7012ZM73.5427 70.362L73.527 67.9498L74.9182 69.071L73.5427 70.362ZM73.5068 66.9205L73.5081 66.7422L75.3392 65.0427L77.4209 66.6792L75.4818 68.5206L73.5068 66.9205ZM73.4909 65.691L73.4784 63.5916L74.7087 64.58L73.4909 65.691ZM73.4802 62.5653L73.474 62.2743L74.9017 60.5885L76.8931 62.5701L75.3162 64.0354L73.4802 62.5653ZM71.9299 65.6855L70.6921 64.5846L71.8925 63.6051L71.9299 65.6855ZM71.9471 66.7367L71.9429 66.937L70.0138 68.5342L68.043 66.7338L70.0933 65.0633L71.9471 66.7367ZM71.9411 67.9633L71.9598 70.3536L70.5859 69.1008L71.9411 67.9633ZM71.9741 71.4267L71.9803 71.7176L69.7429 73.4527L67.5251 71.6643L70.0062 69.6044L71.9741 71.4267ZM71.9842 72.7001L72.0016 75.2688L70.3456 73.9564L71.9842 72.7001ZM72.0027 76.2732L69.1828 78.5338L66.8946 76.6022L69.7001 74.4513L72.0027 76.2732ZM72.0258 77.2805L72.0546 80.9442L69.8045 79.0623L72.0258 77.2805ZM72.0337 81.9457L68.8323 84.2228L66.0659 82.0271L69.1619 79.5353L72.0337 81.9457ZM72.0655 82.8872L72.1034 86.8199L69.4789 84.7323L72.0655 82.8872ZM72.1015 87.8463L72.1003 88.0246L68.7576 90.8633L65.3092 87.7517L68.8334 85.2272L72.1015 87.8463ZM72.1233 89.0319L72.171 93.9032L69.3604 91.367L72.1233 89.0319ZM72.1605 94.9953L72.1621 95.1518L67.4491 98.568L64.1354 95.7868L68.7558 91.8896L72.1605 94.9953ZM72.169 96.1123L72.2301 102.57L68.0708 99.0966L72.169 96.1123ZM72.2283 103.596L72.227 103.775L67.9328 106.554L63.1373 102.662L67.4063 99.5666L72.2283 103.596ZM72.2368 104.713L72.2836 110.098L68.5765 107.086L72.2368 104.713ZM72.2847 111.102L72.2921 111.215L66.7465 115.19L61.8649 111.443L67.8929 107.531L72.2847 111.102ZM72.2961 112.197L72.3566 119.503L67.3931 115.7L72.2961 112.197ZM72.3577 120.507L72.3652 120.62L60.3724 120.708L66.7067 116.167L72.3577 120.507ZM73.9188 120.512L79.5033 116.073L85.9218 120.515L73.9291 120.603L73.9188 120.512ZM80.1517 115.556L85.0601 111.675C85.7955 115.901 86.3015 118.824 86.5073 119.967L80.1517 115.556ZM78.8385 106.925L83.5831 102.933C84.051 105.806 84.507 108.433 84.8968 110.716L78.8385 106.925ZM79.1778 98.9581L82.4765 96.1136C82.8105 98.1439 83.1313 100.106 83.4227 101.952L79.1778 98.9581ZM77.6932 91.2857L81.1815 88.02C81.551 90.4567 81.9321 92.8057 82.3029 95.0641L77.6932 91.2857ZM77.5675 84.6411L80.3218 82.3718C80.5573 83.9652 80.7987 85.5146 81.043 87.0421L77.5675 84.6411ZM77.0703 78.9516L79.4665 76.8582C79.6889 78.3828 79.9171 79.8635 80.1452 81.3443L77.0703 78.9516ZM76.4698 73.8733L78.7743 71.9686C78.9731 73.3339 79.1748 74.6772 79.3545 76.0177L76.4698 73.8733ZM76.0875 69.0024L78.0762 67.1229C78.2589 68.4414 78.4444 69.738 78.6271 71.0565L76.0875 69.0024ZM75.9218 64.5172L77.5207 63.0548C77.6534 64.0766 77.808 65.1012 77.9435 66.1011L75.9218 64.5172ZM75.4053 59.9856L76.8826 58.2616C77.055 59.4895 77.2054 60.7145 77.3777 61.9424L75.4053 59.9856ZM75.2098 56.2328L76.4611 55.037C76.5437 55.762 76.6483 56.49 76.7529 57.2179L75.2098 56.2328ZM74.9988 53.103L76.0879 51.9526C76.1896 52.7025 76.2665 53.4714 76.3681 54.2213L74.9988 53.103ZM74.8301 49.8224L75.7016 48.7995C75.79 49.4807 75.8565 50.159 75.945 50.8401L74.8301 49.8224ZM74.2522 49.2997L73.3553 48.4893L73.3566 48.3109L75.0988 48.2958L74.2522 49.2997ZM71.7913 48.5057L70.924 49.3284L70.0503 48.3425L71.7926 48.3274L71.7913 48.5057ZM70.3633 49.8568L69.5982 50.5814C69.6401 50.0959 69.679 49.6324 69.7428 49.1499L70.3633 49.8568ZM70.2631 53.1464L69.2832 53.9765C69.3338 53.4253 69.3873 52.8521 69.4597 52.3038L70.2631 53.1464ZM70.8133 53.7101L71.8537 54.7849L71.8599 55.0759L70.7571 55.8228L69.5823 54.7525L70.8133 53.7101ZM71.8477 56.0116L71.8501 56.8376L71.335 56.3455L71.8477 56.0116ZM71.8615 57.9326L71.8689 58.0452L70.4761 59.4678L69.0799 57.8773L70.6486 56.8127L71.8615 57.9326ZM71.8775 59.1621L71.8912 61.0832L71.0014 60.0506L71.8775 59.1621ZM71.913 62.2688L71.9163 62.5817L70.1171 64.0399L68.5004 62.5988L70.4627 60.5819L71.913 62.2688ZM69.4906 64.5596L67.9894 65.7895C68.0689 65.0189 68.1733 64.2293 68.2529 63.4587L69.4906 64.5596ZM69.3873 69.0539L67.3808 70.7302C67.52 69.6774 67.6373 68.6217 67.7545 67.5661L69.3873 69.0539ZM69.0974 73.9476L66.7636 75.7368C66.9086 74.6402 67.0565 73.5216 67.1824 72.4001L69.0974 73.9476ZM68.5592 79.0316L66.04 81.0418C66.2024 79.8135 66.3648 78.5852 66.5329 77.3131L68.5592 79.0316ZM68.1868 84.7177L65.2774 86.8102C65.4485 85.5162 65.6473 84.1811 65.8242 82.8432L68.1868 84.7177ZM68.156 91.364L64.1124 94.7795C64.4011 92.7645 64.7204 90.6866 65.0265 88.5401L68.156 91.364ZM66.7816 99.06L63.053 101.781C63.3143 100.142 63.5653 98.4117 63.8279 96.5941L66.7816 99.06ZM67.2463 107.022L61.6565 110.657C62.0065 108.516 62.3941 106.09 62.8136 103.423L67.2463 107.022ZM66.0791 115.682L60.1173 119.938C60.3264 118.693 60.7985 115.966 61.4213 112.098L66.0791 115.682ZM69.1196 55.3831L70.0765 56.2461L68.9518 56.99C69.0214 56.4636 69.069 55.9344 69.1196 55.3831ZM69.9344 60.0211L68.4641 61.5228C68.5669 60.5768 68.6697 59.6307 68.7695 58.7066L69.9344 60.0211ZM88.4581 153.142L96.813 157.282L83.4127 157.385L88.4581 153.142ZM82.0086 156.53L80.7511 149.334L86.927 152.404L82.0086 156.53ZM88.2354 151.283L82.1005 148.24L86.8603 144.808L92.831 147.405L88.2354 151.283ZM86.6727 143.02L80.8716 140.49L84.8956 137.898L90.2962 140.419L86.6727 143.02ZM84.7738 136.118L79.6686 133.725L83.386 131.427L88.4064 133.787L84.7738 136.118ZM84.9679 130.431L88.4925 128.241C88.7922 129.687 89.1387 131.116 89.5072 132.549L84.9679 130.431ZM83.2891 129.629L78.7498 127.511L86.8356 127.442L83.2891 129.629ZM81.6852 130.622L77.8714 132.974L77.086 128.452L81.6852 130.622ZM83.2139 137.117L79.0686 139.783L78.1935 134.758L83.2139 137.117ZM85.1947 144.074L80.4378 147.485L79.3965 141.522L85.1947 144.074ZM98.0118 156.146L89.7637 152.043L94.6075 147.974C96.0542 151.714 97.3202 154.626 98.0118 156.146ZM93.9069 146.186L88.3383 143.753L92.086 141.057C92.696 142.856 93.3176 144.568 93.9069 146.186ZM90.0662 134.564C90.5021 136.162 90.9847 137.743 91.4979 139.261L86.4556 136.899L90.0662 134.564ZM60.2828 152.609L66.4125 149.447L65.2583 156.659L60.2828 152.609ZM61.8741 130.614L57.3644 132.83C57.7121 131.381 58.0351 129.95 58.317 128.492L61.8741 130.614ZM59.9912 127.643L68.0769 127.573L63.5701 129.767L59.9912 127.643ZM63.4888 131.564L67.2535 133.802L62.1959 136.28L58.5276 133.988L63.4888 131.564ZM66.1325 140.595L60.3852 143.227L56.7269 140.69L62.0707 138.072L66.1325 140.595ZM65.0374 148.372L58.9545 151.518L54.3009 147.734L60.2351 145.037L65.0374 148.372ZM63.8912 157.549L50.4909 157.652L58.7767 153.369L63.8912 157.549ZM61.8757 144.272L67.6449 141.643L66.6999 147.61L61.8757 144.272ZM63.739 137.266L68.725 134.823L67.9236 139.872L63.739 137.266ZM65.1819 130.739L69.7384 128.507L69.0285 133.033L65.1819 130.739ZM56.8564 134.816L60.5057 137.084L55.4978 139.524C55.9668 138.001 56.4197 136.432 56.8564 134.816ZM54.9415 141.369L58.7227 143.989L53.1902 146.516C53.7614 144.895 54.3471 143.165 54.9415 141.369ZM52.5271 148.325L57.4206 152.32L49.2312 156.548C49.9034 155.008 51.1396 152.07 52.5271 148.325ZM71.7652 132.078L75.0275 132.041L79.683 159.101L67.5558 159.194L71.7652 132.078ZM67.2904 161.033L80.0212 160.931L80.664 164.676L66.7039 164.794L67.2904 161.033ZM137.832 219.812L124.906 213.462L130.05 207.96L137.832 219.812ZM123.437 212.754L112.816 207.534L128.449 207.414L123.437 212.754ZM111.392 205.984L116.067 200.153L126.891 205.869L111.392 205.984ZM127.841 204.588L117.058 198.9L120.934 194.057L127.841 204.588ZM115.662 198.158L107.109 193.657L119.349 193.557L115.662 198.158ZM105.641 192.102L109.539 187.931L117.837 191.996L105.641 192.102ZM118.724 190.685L110.659 186.718L113.88 183.283L118.724 190.685ZM109.191 186.01L102.465 182.711L112.337 182.632L109.191 186.01ZM94.2622 171.852L97.2553 179.59L87.1143 175.46L94.2622 171.852ZM85.2103 174.672L76.6559 171.198L92.3115 171.081L85.2103 174.672ZM96.0896 172.205L102.175 175.621L99.0798 179.965L96.0896 172.205ZM97.2255 171.039L105.49 170.971L103.103 174.337L97.2255 171.039ZM103.569 176.385L111.086 180.615L100.498 180.71L103.569 176.385ZM106.914 171.672L111.766 179.187L104.475 175.099L106.914 171.672ZM46.8754 181.12L36.5563 181.206L43.8992 176.799L46.8754 181.12ZM42.1482 171.479L49.8306 171.424L44.3559 174.694L42.1482 171.479ZM45.2547 175.996L50.8755 172.633L48.0977 180.143L45.2547 175.996ZM52.7283 172.119L60.2889 175.685L49.8355 179.994L52.7283 172.119ZM54.8133 171.368L71.0506 171.238L62.2481 174.873L54.8133 171.368ZM40.7575 172.21L43.0222 175.5L35.9466 179.742L40.7575 172.21ZM45.1792 183.15L38.5265 186.555L35.3073 183.228L45.1792 183.15ZM42.1463 192.59L29.9504 192.697L38.1808 188.495L42.1463 192.59ZM33.766 183.917L37.0452 187.297L29.0515 191.395L33.766 183.917ZM40.7083 194.186L32.2416 198.824L28.4686 194.286L40.7083 194.186ZM36.6174 206.566L21.1182 206.682L31.8462 200.803L36.6174 206.566ZM26.8818 194.813L30.8451 199.599L20.1639 205.462L26.8818 194.813ZM35.2262 208.145L24.6746 213.535L19.5925 208.266L35.2262 208.145ZM17.9751 208.855L23.2152 214.279L10.3919 220.819L17.9751 208.855ZM11.3127 222.123L24.3507 215.478L30.6312 221.977C27.037 221.992 15.6918 222.077 11.3127 222.123ZM32.0554 221.161L25.8349 214.715L36.7693 209.13L32.0554 221.161ZM38.052 205.841L33.2617 200.052L42.2324 195.146L38.052 205.841ZM39.6401 187.751L46.4827 184.259L43.5457 191.793L39.6401 187.751ZM45.7048 193.351L47.254 189.226L49.0293 189.974C47.9166 190.965 46.7865 192.088 45.7048 193.351ZM50.3625 188.834L47.8078 187.737L49.2259 183.93L52.3458 187.333C51.7032 187.806 51.0357 188.298 50.3625 188.834ZM53.6633 186.481L50.6033 183.13L55.2703 183.1L55.644 185.337C55.0217 185.656 54.3468 186.035 53.6633 186.481ZM57.1063 184.57L56.8591 183.065L61.2353 183.041C61.2133 183.038 59.5782 183.424 57.1063 184.57ZM51.2983 181.08L62.2002 176.585L71.3987 180.925L51.2983 181.08ZM73.1693 180.021L64.1594 175.773L73.1022 172.09L73.1693 180.021ZM74.6851 172.098L83.3434 175.631L74.7332 180.005L74.6851 172.098ZM85.2721 176.399L95.8782 180.724L76.4472 180.878L85.2721 176.399ZM90.1159 184.314C87.6328 183.183 85.9836 182.831 85.9836 182.831L90.3598 182.807L90.1159 184.314ZM91.5812 185.044L91.9237 182.79L96.5907 182.76L93.5732 186.177C92.896 185.731 92.2291 185.375 91.5812 185.044ZM94.9145 187.002L97.9816 183.547L99.4664 187.336L96.9068 188.47C96.2412 187.936 95.5698 187.446 94.9145 187.002ZM98.2761 189.589L100.054 188.797L101.674 192.917C100.547 191.652 99.3968 190.562 98.2761 189.589ZM101.181 183.813L108.074 187.202L104.231 191.291L101.181 183.813ZM105.596 194.64L114.648 199.408L109.948 205.258L105.596 194.64ZM111.3 208.539L122.32 213.946L116.191 220.478L111.3 208.539ZM117.604 221.267L123.786 214.675L136.923 221.12C132.566 221.169 121.22 221.254 117.604 221.267Z" fill="#3B3735"/>
<path d="M418.041 131.537H417.42V132.373L417.492 141.789L539.153 140.905L539.082 131.489V130.653H538.413L538.365 122.79L542.331 122.766V121.547L414.553 122.479V123.698L417.993 123.674L418.041 131.537ZM533.538 122.814L533.586 130.676H532.487L532.439 122.814H533.538ZM530.886 122.838L530.934 130.7H529.835L529.787 122.838H530.886ZM518.295 122.933L518.343 130.796H517.244L517.196 122.933H518.295ZM515.643 122.933L515.691 130.82H514.591L514.544 122.957L515.643 122.933ZM503.051 123.029L503.099 130.891H502L501.952 123.029H503.051ZM500.399 123.053L500.447 130.915H499.348L499.3 123.053H500.399ZM487.808 123.148L487.856 131.011H486.756L486.709 123.148H487.808ZM485.156 123.172L485.203 131.035H484.104L484.057 123.172H485.156ZM472.588 123.268L472.636 131.13H471.537L471.489 123.268H472.588ZM469.912 123.268L469.96 131.13H468.861L468.813 123.268H469.912ZM457.345 123.363L457.392 131.226H456.317L456.269 123.363H457.345ZM454.692 123.387L454.74 131.274H453.641L453.593 123.411L454.692 123.387ZM442.101 123.483L442.149 131.346H441.05L441.002 123.483H442.101ZM439.449 123.507L439.497 131.369H438.398L438.35 123.507H439.449ZM426.857 123.602L426.905 131.465H425.806L425.758 123.602H426.857ZM424.205 123.626L424.253 131.489H423.154L423.106 123.626H424.205Z" fill="#3B3735"/>
<path d="M542.258 116.337L537.599 116.361L531.626 114.473L522.881 114.019L518.604 114.282L515.546 111.056L510.122 111.988L504.699 108.092L504.34 109.311L499.729 106.802L496.289 106.228L494.162 104.436L490.626 106.826L488.046 104.962L485.776 104.675L485.035 106.443L480.734 104.173L478.704 97.7205H478.226L467.498 101.281L466.996 105.081L464.033 102.428L449.411 107.304L448.073 109.024L445.493 108.618L429.532 113.924L429.078 112.251L431.085 111.51L430.225 110.53L430.512 109.144L414.456 114.904L414.48 117.27L414.504 120.305L542.282 119.349L542.258 116.337Z" fill="#3B3735"/>
<path d="M541.66 201.154L416.128 202.075L416.153 205.517L541.686 204.595L541.66 201.154Z" fill="#3B3735"/>
<path d="M547.706 206.916L410.18 207.929L410.205 211.37L547.731 210.357L547.706 206.916Z" fill="#3B3735"/>
<path d="M549.784 212.697L406.643 213.749H405.138L405.233 225.005H406.715L549.88 223.929H551.361L551.289 212.673L549.784 212.697Z" fill="#3B3735"/>
<path d="M420.094 197.927V199.122L430.87 199.051L430.846 197.832H430.153L428.959 146.928H429.317V146.043H429.962V145.518L430.416 145.494L430.392 143.845L419.808 143.94V145.589H420.262V146.115L420.954 146.091V146.975H421.361L420.859 197.903L420.094 197.927Z" fill="#3B3735"/>
<path d="M435.337 197.808V199.027L446.113 198.931L446.089 197.712L445.372 197.736L444.202 146.808H444.56V145.924H445.205V145.398H445.659L445.635 143.749L435.051 143.821V145.47H435.505V145.995H436.198V146.856H436.58L436.102 197.808H435.337Z" fill="#3B3735"/>
<path d="M450.557 197.688L450.581 198.907L461.333 198.835V197.616H460.425L459.254 146.688H459.804V145.804H460.449L460.425 145.278H460.879V143.629L450.271 143.701L450.294 145.35H450.748V145.876H451.441V146.76H451.632L451.131 197.688H450.557Z" fill="#3B3735"/>
<path d="M465.801 197.569L465.825 198.788L476.577 198.716V197.497H475.669L474.474 146.593L475.048 146.569V145.709L475.669 145.685V145.159H476.123V143.51L465.515 143.606L465.539 145.255H465.992V145.756H466.685V146.641H466.877L466.375 197.569H465.801Z" fill="#3B3735"/>
<path d="M481.047 197.473V198.668L491.822 198.596V197.377L490.89 197.401L489.72 146.473H490.293L490.269 145.589H490.914V145.063H491.368V143.414L480.76 143.486V145.135H481.214L481.238 145.661H481.907L481.931 146.521H482.098L481.62 197.473H481.047Z" fill="#3B3735"/>
<path d="M496.289 197.354V198.573L507.064 198.477L507.04 197.282H506.132L504.962 146.354H505.511V145.47H506.156V144.944H506.61L506.586 143.295L496.002 143.367V145.016H496.456V145.542H497.149V146.426H497.34L496.838 197.354H496.289Z" fill="#3B3735"/>
<path d="M511.531 197.234V198.453L522.306 198.381L522.283 197.163H521.375L520.204 146.258L520.753 146.235V145.374L521.399 145.35V144.825H521.852L521.829 143.176L511.244 143.271V144.92L511.698 144.896V145.422H512.391V146.306H512.582L512.08 197.234H511.531Z" fill="#3B3735"/>
<path d="M526.753 197.139L526.776 198.334L537.528 198.262V197.043L536.62 197.067L535.449 146.139H535.999V145.255H536.644L536.62 144.729H537.074V143.056L526.466 143.152L526.49 144.801H526.944V145.327H527.637V146.187H527.828L527.326 197.115L526.753 197.139Z" fill="#3B3735"/>
<path d="M566.615 222.034L566.713 224.764L615.875 223.075L615.777 220.345L611.125 220.508L612.189 199.855L612.448 194.885L613.454 194.937L613.553 193.176L571.677 191.006L571.577 192.766L572.118 192.789L571.859 197.759L570.612 221.874L566.615 222.034ZM580.598 198.22L579.265 221.588L571.959 221.845L573.233 197.844C573.334 195.814 575.082 194.237 577.112 194.338C579.142 194.439 580.699 196.19 580.598 198.22ZM590.67 198.73L589.571 221.236L581.957 221.493L583.305 198.355C583.406 196.324 585.154 194.747 587.184 194.849C589.215 194.969 590.791 196.699 590.67 198.73ZM600.763 199.258L599.876 220.883L592.205 221.144L593.377 198.865C593.478 196.835 595.226 195.258 597.256 195.359C599.287 195.479 600.864 197.228 600.763 199.258ZM609.76 220.557L602.607 220.804L603.47 199.412C603.571 197.382 605.32 195.805 607.35 195.906C609.379 196.007 610.956 197.757 610.855 199.787L609.76 220.557Z" fill="#3B3735"/>
<path d="M577.781 69.5936L619.657 71.7642L619.756 70.0039L615.716 69.8005L616.494 54.8905L616.702 50.6369L589.829 49.2385L583.081 48.8812L582.872 53.1348L582.094 68.0449L577.861 67.8346L577.781 69.5936ZM595.419 53.7755L594.641 68.6855L591.799 68.5401L592.344 57.8082C592.431 56.1644 591.167 54.7806 589.524 54.6933C587.88 54.606 586.478 55.8717 586.409 57.5144L585.846 68.2475L582.965 68.1046L583.743 53.1946L583.762 53.1934C583.829 51.8399 584.995 50.7822 586.349 50.8687C587.702 50.9361 588.741 52.103 588.673 53.4565L589.581 53.4946L590.49 53.5327C590.557 52.1793 591.722 51.1215 593.077 51.2081C594.449 51.2743 595.486 52.422 595.419 53.7755ZM602.147 54.134L601.37 69.0441L596.458 68.7809L597.236 53.8709C597.304 52.5174 598.469 51.4597 599.823 51.5463C601.157 51.6149 602.215 52.7806 602.147 54.134ZM614.807 69.7432L611.965 69.5979L612.529 58.8647C612.616 57.2209 611.35 55.818 609.708 55.7498C608.065 55.6625 606.662 56.9282 606.594 58.5709L606.029 69.2848L603.168 69.1407L603.946 54.2307C604.013 52.8772 605.18 51.8387 606.533 51.9061C607.886 51.9734 608.924 53.1404 608.857 54.4938L610.655 54.5905C610.722 53.237 611.889 52.1985 613.242 52.2659C614.595 52.3332 615.653 53.4989 615.566 54.8536L614.807 69.7432Z" fill="#3B3735"/>
<path d="M576.207 99.7231L618.083 101.894L618.182 100.133L617.37 100.089L618.542 77.5213L618.77 73.2665L591.897 71.8681L578.422 71.1714C578.422 71.1714 578.288 73.8976 578.205 75.3099L577.04 97.9928L576.306 97.9628L576.207 99.7231ZM584.051 75.7251L582.878 98.2929L577.988 98.0477L579.173 75.3827C579.302 74.0831 580.414 73.0866 581.747 73.1553C583.061 73.2059 584.118 74.3716 584.051 75.7251ZM590.757 76.0273L589.607 98.6514L584.696 98.3883L585.869 75.8205L585.849 75.8217C585.917 74.4682 587.082 73.4105 588.436 73.4971C589.769 73.5465 590.806 74.6942 590.757 76.0273ZM597.488 76.4242L596.315 98.9921L591.404 98.7289L592.558 76.1623L592.577 76.1611C592.644 74.8076 593.811 73.7691 595.164 73.8365C596.498 73.9051 597.554 75.0516 597.488 76.4242ZM604.196 76.7649L603.023 99.3327L598.112 99.0695L599.285 76.5017C599.352 75.1482 600.519 74.1097 601.872 74.1771C603.225 74.2445 604.264 75.4114 604.196 76.7649ZM610.9 77.0287L609.752 99.6912L604.822 99.4293L605.994 76.8615C606.062 75.508 607.227 74.4503 608.582 74.5369C609.896 74.6067 610.931 75.716 610.9 77.0287ZM616.46 100.032L611.549 99.7687L612.703 77.2021L612.722 77.2009C612.789 75.8474 613.956 74.8089 615.309 74.8762C616.662 74.9436 617.7 76.1106 617.633 77.464L616.46 100.032Z" fill="#3B3735"/>
<path d="M574.643 130.315L616.519 132.485L616.618 130.725L615.787 130.682L616.979 107.805L617.207 103.55L590.333 102.152L576.877 101.454C576.877 101.454 576.727 104.219 576.662 105.611L575.438 128.587L574.742 128.555L574.643 130.315ZM582.458 105.856L581.277 128.887L576.367 128.643L577.539 105.767C577.606 104.414 578.773 103.375 580.126 103.442C581.44 103.493 582.453 104.565 582.458 105.856ZM589.194 106.33L588.025 129.244L583.113 128.981L584.286 106.105C584.353 104.752 585.52 103.713 586.873 103.781C588.205 103.83 589.242 104.978 589.194 106.33ZM595.905 106.709L594.714 129.586L589.802 129.323L590.991 106.407C591.079 105.072 592.226 104.035 593.58 104.102C594.934 104.189 595.99 105.335 595.905 106.709ZM602.632 107.048L601.441 129.926L596.53 129.663L597.721 106.785C597.789 105.432 598.954 104.374 600.308 104.461C601.661 104.528 602.7 105.695 602.632 107.048ZM609.339 107.37L608.17 130.284L603.239 130.022L604.431 107.145C604.498 105.791 605.665 104.753 607.018 104.82C608.352 104.889 609.388 106.017 609.339 107.37ZM614.878 130.625L609.967 130.362L611.139 107.486C611.206 106.132 612.372 105.074 613.726 105.161C615.079 105.228 616.117 106.395 616.05 107.749L614.878 130.625Z" fill="#3B3735"/>
<path d="M611.722 191.675L612.921 168.315C612.988 166.962 611.95 165.795 610.597 165.727C609.244 165.66 608.077 166.698 608.01 168.052L606.811 191.412L605.012 191.315L606.231 167.954C606.298 166.6 605.26 165.434 603.907 165.366C602.553 165.299 601.387 166.337 601.32 167.691L600.119 191.031L598.321 190.935L599.539 167.574C599.607 166.22 598.568 165.053 597.215 164.986C595.862 164.919 594.695 165.957 594.628 167.311L593.41 190.672L591.612 190.575L592.83 167.214C592.897 165.86 591.859 164.694 590.506 164.626C589.153 164.559 588.004 165.577 587.917 166.932L586.7 190.312L584.902 190.215L586.099 166.817C586.129 165.485 585.112 164.355 583.778 164.287C582.425 164.219 581.258 165.258 581.191 166.611L581.21 166.61L580.01 189.951L578.173 189.857L579.393 166.515C579.46 165.161 578.422 163.994 577.069 163.927C575.716 163.86 574.568 164.897 574.48 166.232L573.283 189.611L572.354 189.555L573.566 166.098C573.631 164.706 573.781 161.941 573.781 161.941L587.237 162.639L614.111 164.037L613.883 168.292L612.684 191.652L611.722 191.675Z" fill="#3B3735"/>
<path d="M573.08 160.328L614.956 162.498L615.055 160.738L614.243 160.694L615.414 138.088L615.642 133.833L588.768 132.434L575.293 131.738C575.293 131.738 575.154 134.387 575.091 135.798L575.071 135.799L573.913 158.597L573.198 158.566L573.08 160.328ZM580.896 136.177L579.714 158.9L574.804 158.656L575.955 136.051C576.022 134.697 577.187 133.64 578.542 133.726C579.894 133.775 580.908 134.866 580.896 136.177ZM587.627 136.574L586.461 159.257L581.55 158.994L582.718 136.349C582.805 134.995 583.953 133.977 585.306 134.044C586.642 134.132 587.657 135.242 587.627 136.574ZM594.34 136.992L593.17 159.598L588.258 159.335L589.41 136.73L589.429 136.729C589.496 135.375 590.661 134.317 592.016 134.404C593.369 134.471 594.407 135.638 594.34 136.992ZM601.048 137.332L599.878 159.938L594.967 159.675L596.137 137.069C596.204 135.716 597.371 134.677 598.724 134.744C600.077 134.812 601.135 135.978 601.048 137.332ZM607.777 137.691L606.606 160.297L601.676 160.035L602.846 137.429C602.914 136.075 604.08 135.037 605.433 135.104C606.806 135.17 607.843 136.318 607.777 137.691ZM613.315 160.638L608.403 160.374L609.574 137.768C609.641 136.415 610.808 135.376 612.161 135.444C613.514 135.511 614.552 136.678 614.485 138.031L613.315 160.638Z" fill="#3B3735"/>
<path d="M597.201 196.854L594.131 199.623L596.899 202.694L599.97 199.925L597.201 196.854Z" fill="#3B3735"/>
<path d="M587.138 196.352L584.068 199.122L586.838 202.193L589.908 199.423L587.138 196.352Z" fill="#3B3735"/>
<path d="M577.034 195.821L573.964 198.59L576.732 201.661L579.803 198.892L577.034 195.821Z" fill="#3B3735"/>
<path d="M607.249 197.401L604.178 200.169L606.945 203.241L610.017 200.474L607.249 197.401Z" fill="#3B3735"/>
<path d="M582.634 46.2041L582.546 47.9714L617.27 49.7129L617.358 47.9456L582.634 46.2041Z" fill="#3B3735"/>
<path d="M371.645 97.1057L363.191 93.7644L371.897 97.7462L371.918 97.7632L371.939 97.7641L371.961 97.765L371.961 97.7489L382.982 94.0246L371.645 97.1057Z" fill="#3B3735"/>
<path d="M397.628 221.708L396.742 220.863L396.6 189.84C396.6 189.84 395.743 186.235 395.733 184.942C395.743 186.235 394.909 189.802 394.909 189.802L394.095 189.784L394.096 189.251L394.075 186.165L394.075 185.632L393.971 164.513L393.971 163.98L393.971 161.929L393.972 161.396L393.877 142.087L393.878 141.554L393.878 139.502L393.879 138.969L393.753 112.713L396.237 112.752L396.089 81.8742C396.089 81.8742 395.235 77.7029 395.232 76.2166C395.235 77.7029 394.419 81.8529 394.419 81.8529L393.605 81.8351C393.605 81.8351 384.903 70.5516 384.892 67.2233L384.831 55.8479L384.681 55.8417C384.681 55.8417 384.288 53.9675 384.295 53.2893C384.289 53.9514 383.932 55.8266 383.932 55.8266C383.932 55.8266 371.476 42.0602 371.418 31.1372C371.476 42.0602 359.153 55.439 359.153 55.439L359.131 55.4381C359.131 55.4381 358.738 53.5639 358.745 52.8857C358.739 53.5478 358.382 55.423 358.382 55.423L358.275 55.4185L358.336 66.7939C358.342 70.2351 349.743 81.1523 349.743 81.1523L348.93 81.1345C348.93 81.1345 348.075 76.9633 348.051 75.4761C348.054 76.9624 347.238 81.1124 347.238 81.1124L347.385 111.99L349.87 112.029L349.996 138.285L349.995 138.819L349.995 140.87L349.994 141.403L350.089 160.712L350.088 161.245L350.088 163.297L350.087 163.83L350.192 184.948L350.191 185.481L350.213 188.568L350.212 189.101L349.398 189.083C349.398 189.083 348.541 185.477 348.531 184.184C348.541 185.477 347.707 189.045 347.707 189.045L347.848 220.067L347.002 220.824L347.035 225.688L397.623 226.457L397.628 221.708ZM391.402 207.087L385.426 206.999L385.405 203.913L391.38 204L391.402 207.087ZM391.31 189.765L391.382 203.451L385.406 203.363L385.334 189.677L391.31 189.765ZM388.527 189.181L385.336 189.128L385.314 186.042L388.505 186.094L388.527 189.181ZM388.506 185.561L385.315 185.509L385.21 164.39L388.401 164.443L388.506 185.561ZM388.403 163.893L385.212 163.841L385.212 161.789L388.403 161.842L388.403 163.893ZM388.404 161.309L385.213 161.256L385.118 141.948L388.309 142L388.404 161.309ZM358.198 140.986L355.35 140.948L355.349 138.897L358.198 138.935L358.198 140.986ZM357.954 110.88L357.948 107.94L359.012 107.612L360.09 107.964L360.097 110.889L357.954 110.88ZM358.197 141.535L358.291 160.844L355.443 160.806L355.348 141.497L358.197 141.535ZM375.002 111.155L374.996 108.215L376.059 107.887L377.138 108.239L377.144 111.18L375.002 111.155ZM375.267 141.262L372.076 141.21L372.076 139.158L375.267 139.211L375.267 141.262ZM375.143 116.492L375.248 138.644L372.057 138.592L371.952 116.44L375.143 116.492ZM371.07 141.184L368.05 141.139L368.05 139.087L371.07 139.132L371.07 141.184ZM370.739 111.09L370.734 108.15L371.797 107.823L372.876 108.175L372.882 111.115L370.739 111.09ZM370.945 116.43L371.049 138.598L368.029 138.553L367.925 116.401L370.945 116.43ZM360.449 188.752L360.428 185.666L362.741 185.698L362.762 188.784L360.449 188.752ZM362.761 189.333L362.833 203.019L360.519 202.988L360.447 189.302L362.761 189.333ZM363.644 163.523L363.644 161.471L366.129 161.51L366.129 163.562L363.644 163.523ZM366.036 141.652L366.13 160.961L363.646 160.922L363.551 141.613L366.036 141.652ZM363.531 141.079L363.531 139.028L366.015 139.067L366.015 141.118L363.531 141.079ZM366.478 111.009L366.472 108.085L367.535 107.758L368.614 108.11L368.62 111.05L366.478 111.009ZM366.016 138.518L363.532 138.479L363.428 116.31L365.912 116.349L366.016 138.518ZM362.524 141.054L360.211 141.022L360.211 138.97L362.524 139.002L362.524 141.054ZM362.215 110.961L362.21 108.021L363.273 107.693L364.352 108.045L364.357 110.986L362.215 110.961ZM362.421 116.3L362.525 138.469L360.212 138.437L360.107 116.285L362.421 116.3ZM358.29 161.393L358.29 163.445L355.441 163.407L355.441 161.355L358.29 161.393ZM358.311 163.979L358.415 185.097L355.567 185.059L355.462 163.941L358.311 163.979ZM358.414 185.647L358.435 188.733L355.586 188.695L355.565 185.608L358.414 185.647ZM360.232 141.556L362.545 141.588L362.64 160.896L360.326 160.864L360.232 141.556ZM362.617 161.445L362.617 163.496L360.304 163.464L360.304 161.413L362.617 161.445ZM362.637 164.046L362.742 185.165L360.428 185.133L360.324 164.014L362.637 164.046ZM360.518 203.537L362.831 203.569L362.852 206.655L360.539 206.623L360.518 203.537ZM363.644 164.056L366.128 164.095L366.233 185.213L363.748 185.174L363.644 164.056ZM366.231 185.763L366.253 188.849L363.768 188.81L363.747 185.724L366.231 185.763ZM368.049 141.688L371.068 141.733L371.163 161.042L368.143 160.997L368.049 141.688ZM371.162 161.591L371.162 163.643L368.142 163.597L368.142 161.546L371.162 161.591ZM372.075 141.743L375.266 141.795L375.361 161.104L372.17 161.052L372.075 141.743ZM380.58 138.738L380.476 116.585L382.96 116.624L383.064 138.793L380.58 138.738ZM383.084 139.327L383.084 141.378L380.6 141.339L380.6 139.288L383.084 139.327ZM379.594 141.313L377.281 141.282L377.281 139.23L379.594 139.262L379.594 141.313ZM379.285 111.221L379.279 108.28L380.343 107.953L381.421 108.305L381.427 111.245L379.285 111.221ZM379.469 116.559L379.574 138.712L377.261 138.68L377.157 116.511L379.469 116.559ZM375.359 161.653L375.359 163.705L372.168 163.652L372.168 161.601L375.359 161.653ZM375.38 164.239L375.485 185.357L372.294 185.305L372.189 164.186L375.38 164.239ZM375.483 185.906L375.505 188.993L372.314 188.94L372.292 185.854L375.483 185.906ZM377.279 141.831L379.592 141.863L379.687 161.171L377.374 161.139L377.279 141.831ZM379.686 161.721L379.686 163.772L377.373 163.74L377.372 161.689L379.686 161.721ZM380.599 141.872L383.084 141.911L383.178 161.22L380.694 161.181L380.599 141.872ZM383.177 161.769L383.177 163.821L380.693 163.782L380.692 161.73L383.177 161.769ZM383.197 164.355L383.302 185.473L380.818 185.434L380.713 164.316L383.197 164.355ZM383.301 186.022L383.322 189.109L380.838 189.07L380.816 185.983L383.301 186.022ZM388.311 141.451L385.12 141.399L385.119 139.347L388.31 139.399L388.311 141.451ZM388.29 138.865L385.099 138.813L384.995 116.645L388.186 116.697L388.29 138.865ZM385.668 111.309L383.526 111.285L383.52 108.344L384.583 108.017L385.662 108.369L385.668 111.309ZM384.447 82.5193L385.553 83.2439L385.559 86.1682L383.418 86.1273L383.411 83.203L384.447 82.5193ZM381.297 86.1034L379.155 86.0787L379.149 83.1544L380.164 82.4537L381.269 83.1783L381.297 86.1034ZM380.052 58.9279L381.168 59.9276L381.2 66.3423L379.059 66.3015L379.026 59.8867L380.052 58.9279ZM377.035 86.0387L374.893 86.014L374.886 83.0897L375.922 82.406L377.028 83.1306L377.035 86.0387ZM375.79 58.8632L376.906 59.8629L376.938 66.2776L374.796 66.2529L374.764 59.8381L375.79 58.8632ZM372.752 85.9731L370.61 85.9322L370.604 83.008L371.64 82.3242L372.745 83.0489L372.752 85.9731ZM371.528 58.7985L372.644 59.7981L372.676 66.2129L370.534 66.1881L370.502 59.7734L371.528 58.7985ZM368.49 85.9084L366.348 85.8836L366.341 82.9594L367.378 82.2595L368.483 82.9841L368.49 85.9084ZM367.266 58.7338L368.382 59.7334L368.414 66.1482L366.273 66.1073L366.24 59.6926L367.266 58.7338ZM364.228 85.8437L362.086 85.8189L362.079 82.8947L363.115 82.2109L364.22 82.9355L364.228 85.8437ZM363.004 58.669L364.12 59.6687L364.152 66.0834L362.01 66.0587L361.977 59.644L363.004 58.669ZM371.828 87.5662C378.574 87.6699 384.057 91.8727 384.08 96.9624C384.104 102.052 378.663 106.09 371.917 105.986C365.17 105.882 359.688 101.68 359.665 96.59C359.62 91.4994 365.082 87.4624 371.828 87.5662ZM358.832 82.1292L359.938 82.8538L359.944 85.778L357.802 85.7533L357.796 82.8129L358.832 82.1292ZM358.095 116.233L358.2 138.385L355.351 138.347L355.246 116.195L358.095 116.233ZM352.887 189.18L358.434 189.266L358.506 202.952L352.959 202.866L352.887 189.18ZM352.958 203.415L358.505 203.501L358.526 206.588L352.979 206.502L352.958 203.415ZM352.957 207.034L358.504 207.12L358.555 220.288L353.029 220.203L352.957 207.034ZM360.568 220.307L360.539 207.14L362.852 207.172L362.924 220.341L360.568 220.307ZM363.767 189.343L366.252 189.382L366.324 203.068L363.839 203.029L363.767 189.343ZM363.838 203.578L366.322 203.617L366.343 206.704L363.859 206.665L363.838 203.578ZM363.909 220.366L363.837 207.197L366.321 207.236L366.372 220.404L363.909 220.366ZM368.141 164.131L371.161 164.176L371.266 185.294L368.246 185.249L368.141 164.131ZM368.244 185.798L371.264 185.843L371.285 188.93L368.266 188.885L368.244 185.798ZM368.265 189.418L371.285 189.463L371.357 203.149L368.337 203.104L368.265 189.418ZM368.335 203.653L371.355 203.698L371.376 206.784L368.356 206.739L368.335 203.653ZM368.406 220.44L368.334 207.271L371.354 207.317L371.426 220.486L368.406 220.44ZM372.291 189.473L375.482 189.525L375.554 203.211L372.363 203.159L372.291 189.473ZM372.362 203.708L375.553 203.76L375.574 206.846L372.383 206.794L372.362 203.708ZM372.433 220.495L372.361 207.326L375.552 207.379L375.624 220.548L372.433 220.495ZM377.393 164.274L379.706 164.306L379.811 185.425L377.498 185.393L377.393 164.274ZM377.496 185.942L379.81 185.974L379.831 189.06L377.518 189.028L377.496 185.942ZM377.517 189.561L379.83 189.593L379.902 203.279L377.589 203.247L377.517 189.561ZM377.587 203.796L379.901 203.828L379.922 206.915L377.609 206.883L377.587 203.796ZM377.658 220.584L377.586 207.415L379.9 207.447L379.972 220.616L377.658 220.584ZM380.836 189.619L383.321 189.658L383.392 203.344L380.908 203.305L380.836 189.619ZM380.886 203.837L383.37 203.876L383.392 206.963L380.907 206.924L380.886 203.837ZM380.906 207.457L383.391 207.496L383.441 220.664L380.979 220.626L380.906 207.457ZM385.454 220.699L385.425 207.532L391.401 207.62L391.451 220.788L385.454 220.699Z" fill="#3B3735"/>
<path d="M338.519 219.44L338.331 146.859L267.831 147.049L267.861 161.094L257.402 161.115L257.38 153.977L246.261 154.009L246.287 159.829L244.998 159.826L244.994 159.883L232.241 159.917L222.833 131.522L224.036 131.519L224.026 129.598L222.191 129.615L222.167 129.556L220.246 129.566L220.242 129.623L155.817 129.803L155.828 131.724L156.371 131.733L156.361 132.707L155.76 132.694L155.758 133.554L156.017 133.543L156.094 160.145L155.894 160.131L155.891 162.252L156.435 162.261L156.434 163.092L155.833 163.079L155.827 163.996L156.086 163.985L156.144 190.442L155.945 190.429L155.955 192.35L156.385 192.351L156.388 193.125L155.9 193.148L155.912 194.21L156.171 194.199L156.226 219.882L155.395 219.882L155.399 225.614L338.785 225.104L338.781 219.372L338.519 219.44ZM294.003 165.083C294.009 162.934 295.506 161.175 297.339 161.187C299.203 161.173 300.715 162.912 300.71 165.061L300.725 168.558L293.99 168.579L294.003 165.083ZM285.965 151.658L290.637 151.638L290.65 158.059L285.95 158.077L285.965 151.658ZM284.185 176.527L284.213 181.917L280.722 171.5C282.73 172.299 284.172 174.233 284.185 176.527ZM248.634 164.004L248.636 164.807L249.581 164.815L249.588 168.025L248.262 164.007L248.634 164.004ZM241.487 163.767L242.605 163.759L242.608 162.899L245.015 162.894L245.012 190.235L241.601 190.257L241.487 163.767ZM217.314 133.433L218.432 133.424L218.434 132.564L220.269 132.548L220.344 160.01L217.393 160.006L217.314 133.433ZM217.383 163.875L218.501 163.866L218.505 162.978L237.219 162.927L237.217 163.787L238.19 163.797L238.275 190.285L233.518 190.299L233.466 176.567C233.449 173.499 230.957 171.005 227.89 171.022C224.823 171.039 222.33 173.532 222.346 176.6L222.37 190.329L217.47 190.334L217.383 163.875ZM196.767 133.471L197.655 133.475L197.657 132.616L213.076 132.566L213.073 133.425L214.047 133.436L214.124 160.038L210.599 160.051L210.543 146.377C210.526 143.309 208.291 140.832 205.511 140.841C202.731 140.849 200.496 143.331 200.482 146.425L200.51 160.098L196.813 160.1L196.767 133.471ZM196.836 163.913L197.724 163.917L197.728 163.029L213.147 162.979L213.142 163.867L214.116 163.878L214.174 190.335L210.649 190.349L210.599 176.588C210.583 173.521 208.319 171.042 205.567 171.052C202.788 171.06 200.551 173.571 200.539 176.637L200.589 190.397L196.892 190.399L196.836 163.913ZM179.857 133.532L180.517 133.521L180.519 132.661L193.329 132.631L193.327 133.491L194.101 133.487L194.178 160.089L191.312 160.091L191.277 146.532C191.261 143.465 189.369 140.984 187.019 140.993C184.669 141.002 182.778 143.479 182.795 146.547L182.83 160.105L179.936 160.106L179.857 133.532ZM179.955 163.976L180.614 163.964L180.619 163.076L193.429 163.046L193.424 163.935L194.198 163.931L194.257 190.388L191.391 190.391L191.332 176.773C191.315 173.705 189.424 171.224 187.074 171.233C184.723 171.242 182.833 173.719 182.849 176.787L182.879 190.431L179.985 190.432L179.955 163.976ZM166.731 133.569L167.133 133.568L167.135 132.708L177.338 132.67L177.336 133.529L177.908 133.54L177.985 160.142L175.953 160.116L175.897 146.442C175.88 143.374 174.305 140.886 172.327 140.892C170.378 140.9 168.801 143.399 168.818 146.467L168.845 160.14L166.81 160.142L166.731 133.569ZM166.829 164.013L167.23 164.012L167.234 163.124L177.409 163.083L177.405 163.971L177.977 163.982L178.036 190.44L176.001 190.442L175.951 176.682C175.935 173.614 174.359 171.126 172.382 171.132C170.433 171.141 168.855 173.64 168.872 176.707L168.922 190.468L166.887 190.47L166.829 164.013ZM156.903 133.576L157.19 133.567L157.192 132.707L165.188 132.688L165.186 133.548L165.53 133.543L165.607 160.145L164.116 160.156L164.06 146.481C164.044 143.414 162.755 140.917 161.179 140.922C159.603 140.928 158.313 143.418 158.329 146.486L158.357 160.159L156.982 160.149L156.903 133.576ZM156.998 164.048L157.286 164.039L157.29 163.151L165.285 163.132L165.281 164.02L165.625 164.015L165.684 190.473L164.193 190.484L164.139 176.781C164.123 173.713 162.834 171.216 161.258 171.222C159.682 171.227 158.392 173.717 158.408 176.785L158.434 190.486L157.057 190.506L156.998 164.048ZM165.765 219.912L164.303 219.926L164.249 207.054C164.232 203.986 162.944 201.489 161.367 201.495C159.791 201.5 158.501 203.99 158.518 207.058L158.543 219.928L157.138 219.945L157.055 194.26L157.342 194.251L157.316 193.39L165.311 193.37L165.309 194.23L165.653 194.225L165.765 219.912ZM178.145 219.881L176.111 219.884L176.057 207.012C176.04 203.944 174.465 201.456 172.487 201.462C170.538 201.471 168.961 203.969 168.978 207.037L169.003 219.907L166.969 219.91L166.885 194.224L167.286 194.224L167.289 193.364L177.463 193.324L177.461 194.183L178.033 194.194L178.145 219.881ZM194.366 219.83L191.501 219.832L191.447 206.96C191.43 203.892 189.539 201.411 187.189 201.42C184.839 201.429 182.948 203.906 182.965 206.974L182.99 219.844L180.096 219.845L180.013 194.159L180.673 194.148L180.675 193.288L193.485 193.258L193.499 194.291L194.273 194.287L194.366 219.83ZM214.256 219.775L210.73 219.788L210.676 206.916C210.66 203.848 208.424 201.372 205.644 201.38C202.864 201.388 200.63 203.87 200.618 206.936L200.643 219.806L196.947 219.808L196.882 194.267L197.77 194.272L197.756 193.239L213.174 193.189L213.172 194.049L214.146 194.059L214.256 219.775ZM238.385 219.726L233.57 219.737L233.509 206.979C233.492 203.911 231 201.417 227.933 201.434C224.866 201.451 222.372 203.943 222.389 207.011L222.422 219.767L217.522 219.772L217.439 194.086L218.557 194.078L218.559 193.218L237.359 193.173L237.328 194.031L238.302 194.041L238.385 219.726ZM256.842 219.658L256.788 206.786C256.772 203.718 254.28 201.224 251.213 201.241C248.145 201.257 245.652 203.75 245.669 206.818L245.694 219.688L241.654 219.695L241.599 194.011L242.717 194.003L242.719 193.143L260.343 193.103L260.482 219.652L256.842 219.658ZM255.814 176.998L255.84 186.973L252.857 177.91L252.819 164.81L253.909 164.8L253.907 163.997L268.407 163.97L268.409 164.772L269.354 164.78L269.435 190.494L266.798 190.512L266.759 177.01C266.738 174 264.301 171.538 261.263 171.557C258.257 171.521 255.794 173.987 255.814 176.998ZM275.096 219.632L272.459 219.65L272.404 206.377C272.383 203.366 269.946 200.905 266.908 200.923C266.535 200.926 266.16 200.958 265.782 201.046L263.246 193.39L274.05 193.365L274.052 194.167L274.997 194.175L275.096 219.632ZM275.225 190.465L272.647 190.459L272.566 164.745L273.655 164.734L273.653 163.932L275.372 163.936L275.225 190.465ZM294.871 219.569L292.234 219.587L292.179 206.314C292.158 203.303 289.721 200.841 286.683 200.86C283.644 200.879 281.212 203.319 281.23 206.358L281.257 219.629L278.306 219.626L278.237 194.142L279.327 194.131L279.325 193.329L293.825 193.301L293.827 194.104L294.772 194.112L294.871 219.569ZM300.69 219.542L298.111 219.536L298.043 194.052L299.132 194.041L299.13 193.239L300.849 193.243L300.69 219.542ZM292.706 190.014L292.667 176.512C292.647 173.501 294.766 171.04 297.374 171.02C299.983 171 302.104 173.469 302.125 176.479L302.164 189.981L292.706 190.014ZM308.132 158.008L303.89 158.03L303.876 151.609L308.119 151.588L308.132 158.008ZM312.439 219.525L309.426 210.489L309.42 206.018C309.399 203.007 311.003 200.538 312.981 200.532C314.958 200.526 316.564 202.987 316.556 205.996L316.595 219.498L312.439 219.525ZM309.357 189.963L309.318 176.462C309.298 173.451 310.901 170.983 312.879 170.976C314.856 170.97 316.462 173.431 316.454 176.44L316.493 189.942L309.357 189.963ZM320.971 157.981L317.79 157.99L317.776 151.569L320.957 151.56L320.971 157.981ZM322.699 219.491L322.66 205.989C322.639 202.978 323.842 200.511 325.332 200.499C326.823 200.488 328.028 202.95 328.049 205.961L328.088 219.463L322.699 219.491ZM322.626 189.937L322.587 176.435C322.566 173.424 323.768 170.957 325.259 170.945C326.75 170.934 327.955 173.396 327.975 176.407L328.014 189.909L322.626 189.937ZM331.317 157.952L329.453 157.966L329.439 151.545L331.303 151.531L331.317 157.952ZM333.13 219.468L333.091 205.966C333.07 202.955 333.729 200.479 334.56 200.479C335.362 200.477 336.052 202.933 336.044 205.941L336.083 219.443L333.13 219.468ZM333.057 189.914L333.018 176.412C332.997 173.402 333.656 170.925 334.487 170.925C335.289 170.924 335.979 173.379 335.971 176.388L336.01 189.889L333.057 189.914ZM332.995 168.472L332.979 164.974C332.985 162.825 333.621 161.092 334.451 161.093C335.254 161.091 335.936 162.829 335.93 164.978L335.946 168.476L332.995 168.472ZM337.793 157.942L336.876 157.936L336.863 151.515L337.779 151.521L337.793 157.942Z" fill="#3B3735"/>
<path d="M209.338 95.2922L155.114 95.4399L155.123 98.8995L209.347 98.7517L209.338 95.2922Z" fill="#3B3735"/>
<path d="M156.253 122.296L156.259 122.611L156.265 127.083L220.058 126.916L220.046 122.129L219.932 122.121L211.058 99.6671L156.176 99.8208L156.253 122.296ZM189.03 111.984C189.011 109.776 190.365 108.007 192.056 108.009C193.746 108.012 195.086 109.767 195.105 111.975L195.129 113.696L189.054 113.705L189.03 111.984ZM170.086 112.048C170.067 109.84 171.077 108.075 172.338 108.077C173.598 108.078 174.594 109.838 174.613 112.046L174.637 113.767L170.11 113.769L170.086 112.048ZM157.705 112.079C157.715 109.872 158.181 108.099 158.754 108.11C159.326 108.121 159.806 109.874 159.825 112.082L159.821 113.801L157.701 113.798L157.705 112.079Z" fill="#3B3735"/>
<path d="M1029.99 146.938L977.276 146.549L976.724 147.036L975.045 148.93L974.521 212.074L1035.47 212.502L1035.82 154.949L1029.99 146.938ZM990.467 180.159L979.656 180.072L979.745 167.187L985.201 162.567L985.174 162.544L985.224 162.541L985.201 162.567L990.582 167.272L990.467 180.159ZM985.275 158.32L979.427 155.512L985.272 152.764L991.121 155.572L985.275 158.32ZM1010.65 180.318L999.839 180.231L999.928 167.346L1005.38 162.727L1005.36 162.703L1005.41 162.7L1005.38 162.727L1010.77 167.431L1010.65 180.318ZM1005.43 158.456L999.584 155.648L1005.43 152.9L1011.28 155.707L1005.43 158.456ZM1031.62 180.456L1020.8 180.369L1020.89 167.483L1026.35 162.864L1026.32 162.84L1026.37 162.837L1026.35 162.864L1031.73 167.569L1031.62 180.456ZM1026.45 158.615L1020.6 155.807L1026.45 153.059L1032.29 155.867L1026.45 158.615Z" fill="#3B3735"/>
<path d="M934.484 214.043L934.406 225.034L1074.44 226.035L1074.52 215.043L934.484 214.043Z" fill="#3B3735"/>
<path d="M1036.95 133.163L1037.03 121.439L1023.7 121.351L1036.95 133.163Z" fill="#3B3735"/>
<path d="M1011.12 121.269L1005.66 121.215L1005.64 121.217L999.801 121.186L979.213 144.286L1005.46 144.462L1005.51 144.459L1028.32 144.638L1011.12 121.269Z" fill="#3B3735"/>
<path d="M974.262 120.993L974.22 129.608L985.73 121.092L974.262 120.993Z" fill="#3B3735"/>
<path d="M1004.05 102.269C1004.7 102.104 1005.35 102.015 1006.05 102.023C1007.04 102.04 1007.99 102.236 1008.87 102.588L1014.57 96.2362L1005.89 90.0362L998.742 94.9839L1004.05 102.269Z" fill="#3B3735"/>
<path d="M1022.32 101.759L1013.59 108.14C1013.7 108.689 1013.78 109.265 1013.77 109.846C1013.76 110.629 1013.63 111.395 1013.42 112.115L1021.51 119.36L1047.3 119.538L1022.32 101.759Z" fill="#3B3735"/>
<path d="M991.03 100.318L964.091 118.948L988.415 119.113L998.503 111.717C998.338 111.07 998.248 110.419 998.257 109.711C998.254 108.827 998.43 107.958 998.71 107.159L991.03 100.318Z" fill="#3B3735"/>
<path d="M1008.2 117.25C1007.48 117.47 1006.73 117.565 1005.95 117.561C1005.06 117.564 1004.22 117.387 1003.45 117.13L1001.58 119.236L1005.7 119.268L1009.69 119.308L1008.2 117.25Z" fill="#3B3735"/>
<path d="M1067.33 65.9381L1066.34 64.5829L1065.68 65.0764L1061.41 60.3812L1062.61 59.2743L1061.5 58.0525L1060.31 59.1593L1056.01 54.4405L1056.55 53.8271L1055.3 52.7149L1054.87 53.195L1054.82 53.1476L1054.01 53.8782L1054.14 54.0216L1049.84 58.8751L1049.43 59.253L1049.46 59.3018L1045.18 64.1286L1044.82 63.7455L1043.96 64.5293L1044.39 65.0086L1034.77 75.8874L1034.44 75.5279L1033.58 76.3118L1033.99 76.7674L1029.38 81.9927L1028.46 80.9868L1027.59 81.7707L1028.59 82.8727L1023.58 88.5262L1023.15 88.9308L1023.2 88.9781L1018.19 94.6316L1017.76 95.0361L1017.81 95.0834L1009.6 104.362C1008.6 103.689 1007.42 103.306 1006.13 103.281C1005.02 103.272 1003.98 103.587 1003.05 104.072L995.512 93.7626L995.43 93.6664L990.7 87.1804L991.083 86.8292L990.3 85.9668L989.988 86.238L985.864 80.5996L986.775 79.7876L985.991 78.9252L985.176 79.6557L981.054 74.0426L981.317 73.7996L980.533 72.9371L980.366 73.0987L971.788 61.3619L972.051 61.1189L971.267 60.2565L971.075 60.4195L967.255 55.2176L967.326 55.1376L966.679 54.4439L963.078 49.532L963.221 49.3971L962.491 48.5821L962.443 48.6354L962.06 48.1279L960.705 49.118L961.198 49.7704L956.504 54.041L955.398 52.8442L954.176 53.9526L955.283 55.1493L950.565 59.4465L949.952 58.9022L948.84 60.1556L949.32 60.5816L949.273 60.6349L950.003 61.45L950.147 61.3151L954.999 65.622L955.377 66.0288L955.424 65.9754L960.25 70.2586L959.791 70.6142L960.575 71.4767L961.054 71.044L971.931 80.6736L971.571 80.9982L972.355 81.8606L972.81 81.4546L978.035 86.0675L977.029 86.9862L977.813 87.8486L978.914 86.8484L984.567 91.8651L984.971 92.2956L985.018 92.2422L990.671 97.259L991.075 97.6894L991.122 97.6361L1000.67 106.083C999.97 107.109 999.562 108.32 999.565 109.634C999.56 110.821 999.878 111.913 1000.44 112.864L989.819 120.646L989.723 120.727L983.239 125.458L982.888 125.075L982.026 125.859L982.297 126.171L976.685 130.294L975.848 129.385L974.986 130.168L975.716 130.983L970.105 135.107L969.862 134.843L969 135.627L969.161 135.794L957.427 144.374L957.184 144.111L956.322 144.895L956.485 145.087L951.285 148.908L951.205 148.837L950.511 149.485L945.601 153.086L945.466 152.943L944.651 153.673L944.704 153.721L944.197 154.105L945.187 155.46L945.839 154.966L950.109 159.661L948.912 160.768L950.02 161.99L951.217 160.883L955.513 165.602L954.969 166.215L956.222 167.328L956.648 166.848L956.701 166.895L957.516 166.164L957.381 166.021L961.687 161.168L962.094 160.79L962.065 160.741L966.347 155.914L966.698 156.297L967.561 155.513L967.128 155.034L976.755 144.155L977.08 144.515L977.942 143.731L977.536 143.275L982.147 138.05L983.066 139.056L983.928 138.272L982.928 137.17L987.942 131.491L988.374 131.112L988.32 131.065L993.336 125.411L993.766 125.007L993.713 124.959L1002.46 115.067C1003.46 115.74 1004.65 116.124 1005.94 116.148C1007.2 116.148 1008.37 115.801 1009.36 115.186L1016.76 125.276L1016.84 125.372L1021.57 131.858L1021.19 132.209L1021.97 133.071L1022.28 132.8L1026.41 138.439L1025.5 139.251L1026.28 140.113L1027.09 139.383L1031.22 144.996L1030.95 145.239L1031.74 146.101L1031.91 145.965L1040.48 157.702L1040.22 157.945L1041 158.807L1041.2 158.644L1045.02 163.871L1044.95 163.951L1045.59 164.645L1049.2 169.557L1049.05 169.691L1049.78 170.507L1049.83 170.453L1050.21 170.961L1051.57 169.971L1051.08 169.318L1055.77 165.048L1056.88 166.244L1058.1 165.136L1056.99 163.939L1061.71 159.642L1062.32 160.186L1063.43 158.933L1062.95 158.507L1063 158.454L1062.27 157.639L1062.13 157.773L1057.27 153.467L1056.9 153.06L1056.85 153.113L1052.02 148.83L1052.41 148.479L1051.62 147.616L1051.14 148.049L1040.27 138.419L1040.63 138.095L1039.84 137.233L1039.39 137.639L1034.16 133.026L1035.17 132.107L1034.39 131.244L1033.28 132.245L1027.61 127.229L1027.2 126.799L1027.15 126.852L1021.5 121.836L1021.1 121.405L1021.05 121.458L1011.5 112.962C1012.05 112.02 1012.39 110.964 1012.4 109.802C1012.41 108.69 1012.12 107.647 1011.61 106.717L1021.63 99.3763L1021.72 99.2948L1028.21 94.5387L1028.56 94.9218L1029.42 94.1379L1029.15 93.8258L1034.76 89.7025L1035.57 90.6138L1036.43 89.8299L1035.7 89.0148L1041.31 84.8916L1041.56 85.1549L1042.42 84.371L1042.28 84.2024L1054.02 75.6223L1054.26 75.8856L1055.12 75.1018L1054.96 74.9095L1060.18 71.0871L1060.26 71.158L1060.96 70.5105L1065.87 66.909L1066 67.0525L1066.82 66.3219L1066.76 66.2746L1067.33 65.9381ZM1059.47 59.8914L1055.39 63.5944L1051.58 59.4021L1055.25 55.2687L1059.47 59.8914ZM1050.59 60.5222L1054.29 64.5946L1049.55 68.9184L1046.31 65.349L1050.59 60.5222ZM1048.69 69.7274L1044 73.998L1041.29 71.0276L1045.53 66.2541L1048.69 69.7274ZM1040.52 71.9328L1043.14 74.807L1038.01 79.482L1035.9 77.1581L1040.52 71.9328ZM1035.1 78.0396L1037.12 80.2674L1032 84.9424L1030.46 83.2664L1035.1 78.0396ZM1031.14 85.7263L1026.01 90.4013L1025.07 89.3718L1029.68 84.1465L1031.14 85.7263ZM1025.15 91.1852L1020.03 95.8602L1019.68 95.4771L1024.29 90.2518L1025.15 91.1852ZM1019.17 96.6441L1016.48 99.0772L1018.9 96.3571L1019.17 96.6441ZM996.092 97.5667L993.929 95.1703L994.193 94.9273L996.092 97.5667ZM993.455 93.9864L993.095 94.3109L988.421 89.1853L989.332 88.3732L993.455 93.9864ZM988.643 87.4042L987.638 88.3229L982.964 83.1972L984.521 81.791L988.643 87.4042ZM983.832 80.8219L982.178 82.3097L977.504 77.184L979.708 75.1836L983.832 80.8219ZM976.746 76.3201L972.072 71.1945L974.922 68.5999L979.044 74.213L976.746 76.3201ZM974.209 67.6575L971.288 70.3321L967.018 65.6369L970.467 62.5014L974.209 67.6575ZM969.753 61.5339L966.208 64.7508L961.885 60.0083L965.933 56.332L969.753 61.5339ZM961.781 50.6449L965.053 55.1218L960.885 58.9063L957.183 54.8339L961.781 50.6449ZM955.961 55.9423L959.664 60.0147L955.473 63.8258L951.34 60.1579L955.961 55.9423ZM956.594 64.8449L960.665 61.1419L964.988 65.8844L961.42 69.128L956.594 64.8449ZM965.797 66.7453L970.066 71.4405L967.097 74.1433L962.325 69.9074L965.797 66.7453ZM967.977 74.9242L970.85 72.3029L975.524 77.4285L973.201 79.5371L967.977 74.9242ZM974.081 80.318L976.308 78.2909L980.982 83.4166L979.305 84.9309L974.081 80.318ZM981.766 84.279L986.44 89.4046L985.41 90.35L980.186 85.737L981.766 84.279ZM987.225 90.2922L991.899 95.4178L991.516 95.769L986.292 91.156L987.225 90.2922ZM992.683 96.2802L995.115 98.9636L992.396 96.5499L992.683 96.2802ZM993.569 120.018L991.174 122.181L990.931 121.918L993.569 120.018ZM989.988 122.631L990.313 122.99L985.189 127.665L984.377 126.754L989.988 122.631ZM983.408 127.443L984.326 128.449L979.202 133.124L977.796 131.566L983.408 127.443ZM976.853 132.254L978.34 133.908L973.216 138.583L971.216 136.379L976.853 132.254ZM972.354 139.367L967.229 144.042L964.635 141.191L970.247 137.068L972.354 139.367ZM963.692 141.879L966.367 144.826L961.673 149.096L958.539 145.647L963.692 141.879ZM957.571 146.361L960.787 149.907L956.046 154.231L952.371 150.182L957.571 146.361ZM946.685 154.335L951.161 151.062L954.945 155.231L950.873 158.934L946.685 154.335ZM951.981 160.156L956.053 156.453L959.863 160.645L956.196 164.778L951.981 160.156ZM960.88 159.498L957.178 155.426L961.919 151.102L965.162 154.671L960.88 159.498ZM962.781 150.318L967.475 146.048L970.178 149.018L965.943 153.791L962.781 150.318ZM970.957 148.113L968.336 145.239L973.46 140.564L975.568 142.888L970.957 148.113ZM976.349 142.007L974.322 139.78L979.447 135.105L980.961 136.782L976.349 142.007ZM980.309 134.321L985.433 129.646L986.378 130.675L981.767 135.901L980.309 134.321ZM986.32 128.86L991.445 124.185L991.796 124.569L987.184 129.794L986.32 128.86ZM992.307 123.402L994.99 120.968L992.576 123.689L992.307 123.402ZM1002.62 109.703C1002.64 107.859 1004.17 106.353 1006.01 106.37C1007.85 106.386 1009.36 107.912 1009.34 109.757C1009.33 111.602 1007.8 113.107 1005.96 113.091C1004.11 113.075 1002.61 111.548 1002.62 109.703ZM1016.08 121.503L1018.27 123.898L1018 124.141L1016.08 121.503ZM1018.69 125.085L1019.05 124.76L1023.72 129.886L1022.81 130.698L1018.69 125.085ZM1023.53 131.665L1024.53 130.747L1029.21 135.872L1027.65 137.278L1023.53 131.665ZM1028.34 138.248L1029.99 136.76L1034.67 141.885L1032.46 143.886L1028.34 138.248ZM1035.43 142.749L1040.1 147.875L1037.25 150.47L1033.13 144.831L1035.43 142.749ZM1037.96 151.412L1040.91 148.736L1045.18 153.431L1041.73 156.566L1037.96 151.412ZM1042.42 157.51L1045.96 154.293L1050.28 159.036L1046.24 162.712L1042.42 157.51ZM1050.39 168.425L1047.12 163.948L1051.29 160.163L1054.99 164.236L1050.39 168.425ZM1056.21 163.127L1052.51 159.055L1056.7 155.244L1060.83 158.911L1056.21 163.127ZM1055.58 154.225L1051.51 157.928L1047.18 153.185L1050.75 149.941L1055.58 154.225ZM1046.37 152.324L1042.1 147.629L1045.07 144.926L1049.85 149.162L1046.37 152.324ZM1044.19 144.145L1041.32 146.767L1036.65 141.641L1038.97 139.532L1044.19 144.145ZM1038.09 138.726L1035.86 140.753L1031.19 135.628L1032.86 134.113L1038.09 138.726ZM1030.4 134.765L1025.73 129.64L1026.76 128.694L1031.98 133.307L1030.4 134.765ZM1024.95 128.777L1020.27 123.652L1020.66 123.3L1025.88 127.913L1024.95 128.777ZM1019.49 122.789L1017.06 120.106L1019.78 122.52L1019.49 122.789ZM1017.88 100.029L1020.27 97.8408L1020.51 98.1041L1017.88 100.029ZM1021.46 97.4164L1021.13 97.0569L1026.26 92.3819L1027.1 93.2916L1021.46 97.4164ZM1028.04 92.6039L1027.12 91.598L1032.24 86.923L1033.65 88.4807L1028.04 92.6039ZM1034.62 87.7915L1033.13 86.1376L1038.26 81.4626L1040.26 83.6667L1034.62 87.7915ZM1039.12 80.6787L1044.24 76.0037L1046.84 78.8542L1041.2 82.979L1039.12 80.6787ZM1047.78 78.1414L1045.1 75.2198L1049.8 70.9493L1052.93 74.399L1047.78 78.1414ZM1053.88 73.6861L1050.66 70.1655L1055.4 65.8416L1059.08 69.8903L1053.88 73.6861ZM1060.31 68.9833L1056.53 64.8147L1060.6 61.1117L1064.79 65.7108L1060.31 68.9833Z" fill="#3B3735"/>
<path d="M660.463 192.994L650.325 191.9L649.719 207.044L660.76 207.146L660.463 192.994Z" fill="#3B3735"/>
<path d="M719.205 140.663L719.979 140.667L720.006 137.929L706.08 137.814L706.052 140.553L706.826 140.558L707.677 142.368L708.183 142.372L705.697 207.532L719.238 207.659L717.913 142.439L718.389 142.447L719.205 140.663Z" fill="#3B3735"/>
<path d="M682.827 142.138L683.333 142.142L680.847 207.302L694.417 207.426L693.095 142.236L693.538 142.217L694.384 140.43L695.128 140.438L695.156 137.699L681.259 137.581L681.231 140.32L681.975 140.328L682.827 142.138Z" fill="#3B3735"/>
<path d="M744.055 140.893L744.799 140.901L744.827 138.162L730.93 138.044L730.899 140.754L731.646 140.791L732.494 142.572L733 142.576L730.518 207.765L744.088 207.888L742.762 142.669L743.209 142.68L744.055 140.893Z" fill="#3B3735"/>
<path d="M736.55 133.712L737.104 131.987L735.991 128.867L734.593 127.503L734.145 126.124L735.157 126.133L735.155 125.3L733.993 125.278L734.107 112.984L727.322 112.922L727.208 125.217L726.435 125.212L726.548 112.918L725.419 112.922L725.305 125.216L724.532 125.212L724.643 112.888L714.584 112.797L714.502 125.118L713.696 125.087L713.81 112.792L712.681 112.797L712.596 125.088L711.793 125.086L711.907 112.792L701.878 112.698L701.764 124.992L700.99 124.987L701.104 112.693L699.972 112.668L699.858 124.962L699.084 124.958L699.198 112.664L686.819 112.558L686.705 124.853L685.843 124.858L684.385 124.839L684.378 126.683L685.716 126.686L685.661 126.721L687.354 130.254L686.825 132.215L686.812 134L684.874 135.312L737.071 135.767L736.55 133.712Z" fill="#3B3735"/>
<path d="M738.756 110.633L738.789 106.585L738.816 106.285L738.824 105.808L681.773 105.289L681.766 105.765L681.772 106.092L681.738 110.14L681.734 110.914L738.754 111.436L738.756 110.633Z" fill="#3B3735"/>
<path d="M637.707 209.635L637.673 213.418L775.101 214.656L775.135 210.872L637.707 209.635Z" fill="#3B3735"/>
<path d="M629.68 215.258L629.646 219.042L783.238 220.395L783.271 216.611L629.68 215.258Z" fill="#3B3735"/>
<path d="M620.679 220.546L620.646 224.33L791.145 225.866L791.179 222.082L620.679 220.546Z" fill="#3B3735"/>
<path d="M762.539 208.044L770.069 208.114L769.711 200.213L762.375 199.735L762.183 190.627L750.051 189.246L749.357 207.937L759.027 208.011L762.539 208.044Z" fill="#3B3735"/>
<path d="M675.539 183.467L663.446 181.635L662.665 207.146L675.848 207.253L675.539 183.467Z" fill="#3B3735"/>
<path d="M889.379 157.359L889.283 168.529L909.06 168.7L909.155 157.53L889.379 157.359Z" fill="#3B3735"/>
<path d="M805.165 156.62L805.069 167.79L824.846 167.961L824.942 156.79L805.165 156.62Z" fill="#3B3735"/>
<path d="M919.593 114.578L921.389 110.855L792.708 109.733L794.727 113.502L919.593 114.578Z" fill="#3B3735"/>
<path d="M857.423 159.009C846.502 158.913 837.526 167.199 837.453 177.48L837.04 224.474L838.168 224.481L838.522 183.164C838.619 173.428 847.051 165.562 857.364 165.661C867.676 165.76 875.991 173.759 875.924 183.49L875.63 224.797L876.758 224.804L877.112 177.82C877.185 167.539 868.345 159.104 857.423 159.009Z" fill="#3B3735"/>
<path d="M835.493 156.911L834.793 225.128L835.738 225.133L836.144 177.501C836.224 166.487 845.78 157.623 857.434 157.726C869.088 157.83 878.481 166.879 878.395 177.863L878.054 225.516L878.816 225.519L879.283 157.368L835.493 156.911ZM841.721 162.857C837.598 166.7 836.664 168.918 836.664 168.918L836.752 158.147L849.411 158.246C849.386 158.28 845.769 159.118 841.721 162.857ZM877.882 169.289C877.882 169.289 876.98 167.022 872.928 163.113C868.949 159.284 865.306 158.389 865.306 158.389L877.965 158.488L877.882 169.289Z" fill="#3B3735"/>
<path d="M797.475 171.979L832.71 172.277L832.873 154.759L881.93 155.188L881.766 172.706L915.842 173.001L916.076 146.941L797.708 145.918L797.475 171.979ZM887.517 155.262L911.038 155.466L910.892 170.756L887.371 170.552L887.517 155.262ZM803.315 154.521L826.836 154.725L826.69 170.015L803.169 169.811L803.315 154.521Z" fill="#3B3735"/>
<path d="M797.189 206.489L806.008 206.578L806.176 185.768C806.21 181.101 810.08 177.389 814.836 177.41C819.567 177.465 823.387 181.257 823.353 185.925L823.185 206.734L832.399 206.822L832.666 174.722L797.431 174.424L797.189 206.489Z" fill="#3B3735"/>
<path d="M881.48 207.217L890.447 207.281L890.616 186.472C890.65 181.804 894.515 178.063 899.275 178.114C904.006 178.168 907.827 181.961 907.793 186.629L907.624 207.438L915.527 207.517L915.794 175.417L881.717 175.121L881.48 207.217Z" fill="#3B3735"/>
<path d="M797.021 224.77L832.255 225.067L832.395 207.98L797.16 207.683L797.021 224.77ZM804.688 209.069L823.939 209.238L823.828 223.577L804.577 223.409L804.688 209.069Z" fill="#3B3735"/>
<path d="M881.312 225.496L915.388 225.792L915.528 208.705L881.451 208.409L881.312 225.496ZM889.499 209.806L908.69 209.984L908.549 224.328L889.358 224.15L889.499 209.806Z" fill="#3B3735"/>
<path d="M916.711 135.171L916.256 123.266L797.889 122.243L796.967 134.119L790.47 134.065L792.484 138.779L794.558 138.791L794.529 142.514L919.943 143.596L920.002 139.869L922.412 139.889L924.732 135.231L916.711 135.171Z" fill="#3B3735"/>
<path d="M916.296 120.394L917.988 117.571L795.988 116.505L797.928 119.372L916.296 120.394Z" fill="#3B3735"/>
</g>
<defs>
<filter id="filter0_ddd" x="0.739258" y="0.685791" width="1077.78" height="251.314" filterUnits="userSpaceOnUse" color-interpolation-filters="sRGB">
<feFlood flood-opacity="0" result="BackgroundImageFix"/>
<feColorMatrix in="SourceAlpha" type="matrix" values="0 0 0 0 0 0 0 0 0 0 0 0 0 0 0 0 0 0 127 0"/>
<feOffset dy="4"/>
<feGaussianBlur stdDeviation="2"/>
<feColorMatrix type="matrix" values="0 0 0 0 0 0 0 0 0 0 0 0 0 0 0 0 0 0 0.25 0"/>
<feBlend mode="normal" in2="BackgroundImageFix" result="effect1_dropShadow"/>
<feColorMatrix in="SourceAlpha" type="matrix" values="0 0 0 0 0 0 0 0 0 0 0 0 0 0 0 0 0 0 127 0"/>
<feOffset dy="4"/>
<feGaussianBlur stdDeviation="2"/>
<feColorMatrix type="matrix" values="0 0 0 0 0 0 0 0 0 0 0 0 0 0 0 0 0 0 0.25 0"/>
<feBlend mode="normal" in2="effect1_dropShadow" result="effect2_dropShadow"/>
<feColorMatrix in="SourceAlpha" type="matrix" values="0 0 0 0 0 0 0 0 0 0 0 0 0 0 0 0 0 0 127 0"/>
<feOffset dy="4"/>
<feGaussianBlur stdDeviation="2"/>
<feColorMatrix type="matrix" values="0 0 0 0 0 0 0 0 0 0 0 0 0 0 0 0 0 0 0.25 0"/>
<feBlend mode="normal" in2="effect2_dropShadow" result="effect3_dropShadow"/>
<feBlend mode="normal" in="SourceGraphic" in2="effect3_dropShadow" result="shape"/>
</filter>
</defs>
</svg>
