<svg width="170" height="140" viewBox="0 0 170 140" fill="none" xmlns="http://www.w3.org/2000/svg">
<g filter="url(#filter0_d)">
<path d="M89 115C106.673 115 121 100.673 121 83C121 65.3269 106.673 51 89 51C71.3269 51 57 65.3269 57 83C57 100.673 71.3269 115 89 115Z" fill="#FFBC4B"/>
<path d="M44.9691 121.094L48.9798 121.287C49.5064 121.311 50.0234 121.437 50.5011 121.66C50.9788 121.883 51.4079 122.198 51.7639 122.587C52.12 122.976 52.3959 123.431 52.576 123.926C52.7562 124.422 52.837 124.948 52.8138 125.474C52.7907 126.001 52.664 126.518 52.4411 126.996C52.2181 127.473 51.9033 127.902 51.5145 128.258C51.1257 128.614 50.6706 128.89 50.1752 129.071C49.6798 129.251 49.1537 129.331 48.627 129.308L44.6168 129.149C43.6033 129.03 42.6726 128.531 42.0114 127.754C41.3502 126.976 41.0076 125.977 41.0522 124.958C41.0968 123.938 41.5253 122.973 42.2518 122.257C42.9784 121.54 43.949 121.124 44.9691 121.094Z" fill="#3B3735" stroke="#231F20" stroke-miterlimit="10"/>
<path d="M115.554 40.6912L118.797 43.0598C119.224 43.3689 119.586 43.7592 119.862 44.2082C120.138 44.6572 120.323 45.1562 120.406 45.6767C120.49 46.1972 120.47 46.7291 120.348 47.242C120.225 47.7548 120.003 48.2385 119.694 48.6655C119.385 49.0925 118.995 49.4544 118.546 49.7306C118.097 50.0069 117.598 50.1919 117.077 50.2753C116.557 50.3586 116.025 50.3387 115.512 50.2165C114.999 50.0943 114.516 49.8722 114.089 49.5631L110.828 47.2236C110.047 46.566 109.544 45.6376 109.42 44.6246C109.296 43.6117 109.559 42.5892 110.157 41.7624C110.756 40.9356 111.645 40.3657 112.646 40.167C113.647 39.9683 114.686 40.1555 115.554 40.6912Z" fill="#3B3735" stroke="#231F20" stroke-miterlimit="10"/>
<path d="M160.692 101.845C160.692 101.845 160.692 101.845 160.9 101.842C161.936 101.875 162.918 102.311 163.637 103.058C164.356 103.804 164.755 104.802 164.749 105.839L164.764 107.083C164.646 109.812 164.083 112.503 163.097 115.05C162.65 115.962 161.877 116.673 160.93 117.04C159.983 117.408 158.932 117.405 157.987 117.034C157.042 116.662 156.271 115.948 155.828 115.033C155.386 114.119 155.304 113.072 155.598 112.1C156.276 110.386 156.663 108.571 156.743 106.73L156.732 105.866C156.738 104.803 157.158 103.783 157.904 103.026C158.651 102.268 159.663 101.832 160.727 101.81L160.692 101.845Z" fill="#3B3735" stroke="#231F20" stroke-miterlimit="10"/>
<path d="M129.37 126.374C129.349 126.904 129.224 127.425 129.002 127.906C128.779 128.387 128.463 128.819 128.072 129.178C127.681 129.536 127.223 129.813 126.724 129.993C126.225 130.173 125.695 130.252 125.166 130.225L117.249 129.906C116.693 129.923 116.14 129.825 115.624 129.618C115.108 129.411 114.64 129.1 114.249 128.704C113.859 128.309 113.554 127.836 113.354 127.318C113.155 126.799 113.064 126.244 113.088 125.689C113.113 125.133 113.251 124.589 113.495 124.089C113.74 123.59 114.084 123.146 114.508 122.786C114.932 122.426 115.425 122.157 115.957 121.996C116.489 121.835 117.049 121.785 117.601 121.851L125.518 122.205C126.045 122.225 126.563 122.349 127.042 122.569C127.521 122.79 127.951 123.103 128.309 123.49C128.667 123.877 128.945 124.332 129.127 124.826C129.309 125.321 129.391 125.847 129.37 126.374Z" fill="#3B3735" stroke="#231F20" stroke-miterlimit="10"/>
<path d="M103.333 126.698C103.313 127.228 103.188 127.749 102.966 128.23C102.743 128.711 102.427 129.144 102.036 129.502C101.645 129.86 101.186 130.137 100.688 130.317C100.189 130.497 99.6591 130.576 99.1295 130.55L91.2127 130.23C90.6569 130.247 90.1037 130.149 89.5876 129.942C89.0714 129.735 88.6035 129.424 88.213 129.029C87.8225 128.633 87.5179 128.161 87.3182 127.642C87.1184 127.123 87.0279 126.568 87.0522 126.013C87.0765 125.457 87.2151 124.913 87.4593 124.413C87.7036 123.914 88.0483 123.47 88.4719 123.11C88.8954 122.75 89.3887 122.481 89.9209 122.32C90.4531 122.159 91.0129 122.11 91.565 122.175L99.4822 122.529C100.009 122.549 100.527 122.673 101.006 122.894C101.485 123.114 101.915 123.427 102.273 123.814C102.631 124.202 102.909 124.656 103.09 125.151C103.272 125.645 103.355 126.171 103.333 126.698Z" fill="#3B3735" stroke="#231F20" stroke-miterlimit="10"/>
<path d="M78.3334 125.698C78.3133 126.228 78.1883 126.749 77.9655 127.23C77.7428 127.711 77.4268 128.144 77.0358 128.502C76.6448 128.86 76.1865 129.137 75.6876 129.317C75.1887 129.497 74.6591 129.576 74.1295 129.55L66.2127 129.23C65.6569 129.247 65.1037 129.149 64.5876 128.942C64.0714 128.735 63.6035 128.424 63.213 128.029C62.8225 127.633 62.5179 127.161 62.3182 126.642C62.1184 126.123 62.0279 125.568 62.0522 125.013C62.0765 124.457 62.2151 123.913 62.4593 123.413C62.7036 122.914 63.0483 122.47 63.4719 122.11C63.8954 121.75 64.3887 121.481 64.9209 121.32C65.4531 121.159 66.0129 121.11 66.565 121.175L74.4822 121.529C75.0091 121.549 75.5268 121.673 76.0057 121.894C76.4845 122.114 76.9152 122.427 77.2729 122.814C77.6307 123.202 77.9085 123.656 78.0905 124.151C78.2724 124.645 78.355 125.171 78.3334 125.698Z" fill="#3B3735" stroke="#231F20" stroke-miterlimit="10"/>
<path d="M136.959 85.0948C136.901 86.1589 136.428 87.1578 135.643 87.8776C134.857 88.5975 133.821 88.9811 132.756 88.9464L124.873 88.592C124.317 88.6087 123.764 88.5107 123.248 88.3039C122.732 88.0972 122.264 87.7862 121.873 87.3904C121.483 86.9945 121.178 86.5224 120.978 86.0035C120.779 85.4846 120.688 84.9301 120.712 84.3746C120.737 83.8191 120.875 83.2746 121.12 82.7752C121.364 82.2757 121.709 81.832 122.132 81.4718C122.556 81.1116 123.049 80.8427 123.581 80.6818C124.113 80.5208 124.673 80.4714 125.225 80.5366L133.108 80.891C134.175 80.9406 135.179 81.4106 135.901 82.1984C136.623 82.9861 137.003 84.0274 136.959 85.0948Z" fill="#3B3735" stroke="#231F20" stroke-miterlimit="10"/>
<path d="M148.931 120.852C149.835 120.88 150.704 121.212 151.395 121.796C152.087 122.379 152.56 123.179 152.739 124.066C152.918 124.953 152.792 125.874 152.38 126.68C151.969 127.486 151.297 128.129 150.474 128.505C147.608 129.856 144.509 130.644 141.345 130.826C140.331 130.799 139.364 130.391 138.636 129.683C137.908 128.976 137.474 128.02 137.418 127.007C137.362 125.994 137.69 124.996 138.335 124.213C138.981 123.43 139.897 122.919 140.903 122.78C143.029 122.663 145.111 122.133 147.035 121.221C147.629 120.949 148.279 120.823 148.931 120.852Z" fill="#3B3735" stroke="#231F20" stroke-miterlimit="10"/>
<path d="M148.649 83.0518C149.165 83.069 149.672 83.1924 150.139 83.414C153.022 84.6972 155.627 86.5323 157.806 88.816C158.171 89.195 158.458 89.6422 158.651 90.1322C158.843 90.6222 158.937 91.1454 158.928 91.6717C158.918 92.1981 158.805 92.7174 158.594 93.1999C158.384 93.6825 158.08 94.1188 157.701 94.4841C156.953 95.2464 155.933 95.6816 154.865 95.6944C153.797 95.7073 152.767 95.2968 152 94.5527C150.532 93.0194 148.78 91.7848 146.843 90.9173C145.867 90.4784 145.106 89.671 144.725 88.6717C144.343 87.6724 144.374 86.5628 144.809 85.5859C145.135 84.8494 145.676 84.2291 146.362 83.8074C147.048 83.3857 147.846 83.1824 148.651 83.2245L148.649 83.0518Z" fill="#3B3735" stroke="#231F20" stroke-miterlimit="10"/>
<path d="M77.8265 78.4817L85.7092 78.8361C86.265 78.8194 86.8182 78.9174 87.3343 79.1242C87.8504 79.3309 88.3184 79.642 88.7088 80.0378C89.0993 80.4337 89.4039 80.9057 89.6037 81.4246C89.8034 81.9435 89.894 82.498 89.8697 83.0535C89.8454 83.609 89.7068 84.1535 89.4625 84.6529C89.2182 85.1524 88.8736 85.5962 88.45 85.9564C88.0265 86.3166 87.5332 86.5855 87.001 86.7464C86.4687 86.9074 85.909 86.9568 85.3569 86.8916L77.4742 86.5372C76.4607 86.4175 75.53 85.9189 74.8688 85.1415C74.2077 84.3641 73.865 83.3654 73.9096 82.3458C73.9542 81.3263 74.3827 80.3613 75.1092 79.6446C75.8357 78.9279 76.8065 78.5124 77.8265 78.4817Z" fill="#3B3735" stroke="#231F20" stroke-miterlimit="10"/>
<path d="M89.9691 33.1442L97.8518 33.4986C98.4075 33.4819 98.9608 33.5799 99.4769 33.7867C99.993 33.9935 100.461 34.3046 100.851 34.7004C101.242 35.0962 101.547 35.5683 101.746 36.0872C101.946 36.6061 102.037 37.1606 102.012 37.716C101.988 38.2715 101.849 38.816 101.605 39.3155C101.361 39.8149 101.016 40.2587 100.593 40.6189C100.169 40.9791 99.6757 41.2481 99.1435 41.409C98.6113 41.5699 98.0516 41.6193 97.4994 41.5541L89.6168 41.1997C88.6033 41.08 87.6726 40.5815 87.0114 39.8041C86.3502 39.0267 86.0076 38.0279 86.0522 37.0084C86.0968 35.9888 86.5253 35.0238 87.2518 34.3071C87.9783 33.5904 88.949 33.175 89.9691 33.1442Z" fill="#3B3735" stroke="#231F20" stroke-miterlimit="10"/>
<path d="M64.7393 37.519C67.2047 35.6897 69.9545 34.2791 72.8785 33.3437C73.3316 33.1827 73.8134 33.118 74.2929 33.1538C75.083 33.2132 75.8373 33.5074 76.4589 33.9987C77.0806 34.49 77.5412 35.1558 77.7815 35.9108C78.1087 36.9241 78.0228 38.0257 77.5425 38.9761C77.0622 39.9265 76.2263 40.649 75.2165 40.9866C73.1053 41.6715 71.1213 42.6993 69.3442 44.0289C68.4786 44.595 67.4289 44.8078 66.4111 44.6235C65.3933 44.4392 64.4849 43.8717 63.8728 43.038C63.2607 42.2042 62.9915 41.1675 63.1205 40.1413C63.2496 39.115 63.7671 38.1773 64.5665 37.521L64.7393 37.519Z" fill="#3B3735" stroke="#231F20" stroke-miterlimit="10"/>
<path d="M54.8576 48.673C55.2241 47.6734 55.9726 46.8603 56.9386 46.4126C57.9045 45.9649 59.0088 45.9193 60.0084 46.2857C61.008 46.6522 61.8211 47.4008 62.2688 48.3667C62.7164 49.3327 62.7621 50.437 62.3956 51.4366L59.6952 58.8855C59.2744 59.8152 58.5176 60.5514 57.5765 60.9462C56.6355 61.3411 55.5799 61.3655 54.6217 61.0145C53.6634 60.6634 52.8734 59.963 52.4102 59.0536C51.9469 58.1443 51.8448 57.0934 52.1242 56.1118L54.8576 48.673Z" fill="#3B3735" stroke="#231F20" stroke-miterlimit="10"/>
<path d="M59.6046 71.7882C60.8972 73.4842 62.5112 74.9091 64.3544 75.9813C65.2774 76.5201 65.9484 77.4035 66.22 78.437C66.4917 79.4706 66.3416 80.5697 65.8029 81.4927C65.2641 82.4156 64.3808 83.0867 63.3472 83.3583C62.3136 83.63 61.2145 83.4799 60.2916 82.9411C57.5987 81.3381 55.2295 79.2453 53.3065 76.7708C52.8376 76.1607 52.5526 75.4295 52.4849 74.6631C52.4172 73.8966 52.5697 73.1268 52.9243 72.444C53.279 71.7612 53.8211 71.1938 54.487 70.8084C55.1529 70.4231 55.915 70.2358 56.6837 70.2685C57.269 70.2988 57.8413 70.4529 58.3627 70.7206C58.8841 70.9883 59.3429 71.3636 59.7087 71.8216L59.6046 71.7882Z" fill="#3B3735" stroke="#231F20" stroke-miterlimit="10"/>
<path d="M109.073 87.9182L101.156 87.5643C100.6 87.581 100.047 87.4829 99.5309 87.2761C99.0148 87.0693 98.5469 86.7583 98.1564 86.3625C97.7659 85.9667 97.4613 85.4946 97.2616 84.9757C97.0618 84.4568 96.9712 83.9023 96.9955 83.3469C97.0198 82.7914 97.1585 82.2469 97.4028 81.7474C97.647 81.248 97.9917 80.8042 98.4153 80.444C98.8388 80.0838 99.3321 79.8148 99.8643 79.6539C100.397 79.493 100.956 79.4436 101.508 79.5088L109.426 79.8628C110.439 79.9825 111.37 80.481 112.031 81.2584C112.692 82.0358 113.035 83.0346 112.99 84.0541C112.946 85.0737 112.517 86.0386 111.791 86.7554C111.064 87.4721 110.093 87.8874 109.073 87.9182Z" fill="#3B3735" stroke="#231F20" stroke-miterlimit="10"/>
<path d="M9.43431 96.4878C6.87112 90.993 5 85.8638 5 82.7005C5 78.006 6.89641 73.5038 10.2721 70.1843C13.6477 66.8649 18.2261 65 23 65C27.7739 65 32.3523 66.8649 35.7279 70.1843C39.1036 73.5038 41 78.006 41 82.7005C41 92.4676 22.9936 121 22.9936 121C22.9936 121 17.2777 111.926 12.2795 102.26C11.8181 101.365 11.3567 100.458 10.9082 99.5629" fill="#FFB63B"/>
<path d="M9.43431 96.4878C6.87112 90.993 5 85.8638 5 82.7005C5 78.006 6.89641 73.5038 10.2721 70.1843C13.6477 66.8649 18.2261 65 23 65C27.7739 65 32.3523 66.8649 35.7279 70.1843C39.1036 73.5038 41 78.006 41 82.7005C41 92.4676 22.9936 121 22.9936 121C22.9936 121 17.2777 111.926 12.2795 102.26C11.8181 101.365 11.3567 100.458 10.9082 99.5629" stroke="#231F20" stroke-width="2" stroke-linecap="round" stroke-linejoin="round"/>
<path d="M31.8022 77.2675C33.2926 79.4214 33.9387 82.0482 33.6173 84.6476C33.296 87.2471 32.0296 89.6375 30.0596 91.3636C28.0895 93.0896 25.5533 94.0307 22.9342 94.0075C20.315 93.9843 17.7959 92.9984 15.8567 91.2378C13.9175 89.4771 12.6937 87.0646 12.4185 84.4599C12.1432 81.8551 12.8357 79.2402 14.364 77.113C15.8924 74.9859 18.1498 73.4953 20.7062 72.9252C23.2627 72.355 25.9395 72.7452 28.2269 74.0213C29.0532 74.4713 29.8165 75.0285 30.4969 75.6785" fill="#3B3735"/>
<path d="M31.8022 77.2675C33.2926 79.4214 33.9387 82.0482 33.6173 84.6476C33.296 87.2471 32.0296 89.6375 30.0596 91.3636C28.0895 93.0896 25.5533 94.0307 22.9342 94.0075C20.315 93.9843 17.7959 92.9984 15.8567 91.2378C13.9175 89.4771 12.6937 87.0646 12.4185 84.4599C12.1432 81.8551 12.8357 79.2402 14.364 77.113C15.8924 74.9859 18.1498 73.4953 20.7062 72.9252C23.2627 72.355 25.9395 72.7452 28.2269 74.0213C29.0532 74.4713 29.8165 75.0285 30.4969 75.6785" stroke="#231F20" stroke-linecap="round" stroke-linejoin="round"/>
<path d="M19.6232 84.1571L17.0694 85.0424L15.1626 84.543C15.105 84.5267 15.0438 84.5283 14.9872 84.5475C14.9306 84.5668 14.8811 84.6028 14.8454 84.6509C14.8097 84.6989 14.7894 84.7566 14.7873 84.8164C14.7852 84.8762 14.8012 84.9352 14.8334 84.9856L16.1727 87.2557C16.2084 87.3164 16.2647 87.3624 16.3313 87.3853C16.3979 87.4082 16.4705 87.4065 16.536 87.3806L17.671 87.006H17.8526L24.2201 84.6792L23.925 89.9457C23.9233 89.9936 23.933 90.0412 23.9531 90.0847C23.9731 90.1283 24.0032 90.1664 24.0407 90.1962C24.0782 90.226 24.1222 90.2466 24.1691 90.2563C24.2161 90.2661 24.2646 90.2646 24.3109 90.2522L25.934 89.7868C25.9835 89.7711 26.0283 89.7431 26.064 89.7054C26.0998 89.6677 26.1253 89.6215 26.1383 89.5712L27.7273 83.408L30.9168 82.2729C31.0295 82.2269 31.126 82.1484 31.194 82.0473C31.2619 81.9462 31.2982 81.8272 31.2982 81.7054C31.2982 81.5836 31.2619 81.4646 31.194 81.3635C31.126 81.2625 31.0295 81.1839 30.9168 81.1379C30.4124 80.8692 29.8276 80.7926 29.271 80.9222C28.9532 81.013 28.0565 81.3081 26.8988 81.6941L22.563 77.5966C22.5252 77.5586 22.4775 77.5319 22.4253 77.5199C22.373 77.5078 22.3185 77.5108 22.2679 77.5285L20.6448 77.9939C20.5977 78.0062 20.5544 78.0301 20.5187 78.0632C20.4831 78.0964 20.4562 78.1378 20.4405 78.1839C20.4247 78.23 20.4207 78.2792 20.4286 78.3273C20.4365 78.3753 20.4562 78.4206 20.4859 78.4592L23.5845 82.8291" fill="#FFB63B"/>
<path d="M19.6232 84.1571L17.0694 85.0424L15.1626 84.543C15.105 84.5267 15.0438 84.5283 14.9872 84.5475C14.9306 84.5668 14.8811 84.6028 14.8454 84.6509C14.8097 84.6989 14.7894 84.7566 14.7873 84.8164C14.7852 84.8762 14.8012 84.9352 14.8334 84.9856L16.1727 87.2557C16.2084 87.3164 16.2647 87.3624 16.3313 87.3853C16.3979 87.4082 16.4705 87.4065 16.536 87.3806L17.671 87.006H17.8526L24.2201 84.6792L23.925 89.9457C23.9233 89.9936 23.933 90.0412 23.9531 90.0847C23.9731 90.1282 24.0032 90.1664 24.0407 90.1962C24.0782 90.226 24.1222 90.2466 24.1691 90.2563C24.2161 90.2661 24.2646 90.2646 24.3109 90.2522L25.934 89.7868C25.9835 89.7711 26.0283 89.7431 26.064 89.7054C26.0998 89.6677 26.1253 89.6215 26.1383 89.5712L27.7273 83.408L30.9168 82.2729C31.0295 82.2269 31.126 82.1484 31.194 82.0473C31.2619 81.9462 31.2982 81.8272 31.2982 81.7054C31.2982 81.5836 31.2619 81.4646 31.194 81.3635C31.126 81.2625 31.0295 81.1839 30.9168 81.1379C30.4124 80.8692 29.8276 80.7926 29.271 80.9222C28.9532 81.013 28.0565 81.3081 26.8988 81.6941L22.563 77.5966C22.5252 77.5586 22.4775 77.5319 22.4253 77.5199C22.373 77.5078 22.3185 77.5108 22.2679 77.5285L20.6448 77.9939C20.5977 78.0062 20.5544 78.0301 20.5187 78.0632C20.4831 78.0964 20.4562 78.1378 20.4405 78.1839C20.4247 78.23 20.4207 78.2792 20.4286 78.3273C20.4365 78.3753 20.4562 78.4206 20.4859 78.4592L23.5845 82.8291" stroke="#231F20" stroke-linecap="round" stroke-linejoin="round"/>
<path d="M125.434 32.4878C122.871 26.993 121 21.8638 121 18.7005C121 14.006 122.896 9.50382 126.272 6.18434C129.648 2.86486 134.226 1 139 1C143.774 1 148.352 2.86486 151.728 6.18434C155.104 9.50382 157 14.006 157 18.7005C157 28.4676 138.994 57 138.994 57C138.994 57 133.278 47.9261 128.279 38.2598C127.818 37.365 127.357 36.4577 126.908 35.5629" fill="#FFB63B"/>
<path d="M125.434 32.4878C122.871 26.993 121 21.8638 121 18.7005C121 14.006 122.896 9.50382 126.272 6.18434C129.648 2.86486 134.226 1 139 1C143.774 1 148.352 2.86486 151.728 6.18434C155.104 9.50382 157 14.006 157 18.7005C157 28.4676 138.994 57 138.994 57C138.994 57 133.278 47.9261 128.279 38.2598C127.818 37.365 127.357 36.4577 126.908 35.5629" stroke="#231F20" stroke-width="2" stroke-linecap="round" stroke-linejoin="round"/>
<path d="M147.802 13.2675C149.293 15.4214 149.939 18.0482 149.617 20.6476C149.296 23.2471 148.03 25.6375 146.06 27.3636C144.089 29.0896 141.553 30.0307 138.934 30.0075C136.315 29.9843 133.796 28.9984 131.857 27.2378C129.918 25.4771 128.694 23.0646 128.418 20.4599C128.143 17.8551 128.836 15.2402 130.364 13.113C131.892 10.9859 134.15 9.49532 136.706 8.92517C139.263 8.35502 141.94 8.74517 144.227 10.0213C145.053 10.4713 145.817 11.0285 146.497 11.6785" fill="#3B3735"/>
<path d="M147.802 13.2675C149.293 15.4214 149.939 18.0482 149.617 20.6476C149.296 23.2471 148.03 25.6375 146.06 27.3636C144.089 29.0896 141.553 30.0307 138.934 30.0075C136.315 29.9843 133.796 28.9984 131.857 27.2378C129.918 25.4771 128.694 23.0646 128.418 20.4599C128.143 17.8551 128.836 15.2402 130.364 13.113C131.892 10.9859 134.15 9.49532 136.706 8.92517C139.263 8.35502 141.94 8.74517 144.227 10.0213C145.053 10.4713 145.817 11.0285 146.497 11.6785" stroke="#231F20" stroke-linecap="round" stroke-linejoin="round"/>
<path d="M135.623 20.1571L133.069 21.0424L131.163 20.543C131.105 20.5267 131.044 20.5283 130.987 20.5475C130.931 20.5668 130.881 20.6028 130.845 20.6509C130.81 20.6989 130.789 20.7566 130.787 20.8164C130.785 20.8762 130.801 20.9352 130.833 20.9856L132.173 23.2557C132.208 23.3164 132.265 23.3624 132.331 23.3853C132.398 23.4082 132.47 23.4065 132.536 23.3806L133.671 23.006H133.853L140.22 20.6792L139.925 25.9457C139.923 25.9936 139.933 26.0412 139.953 26.0847C139.973 26.1283 140.003 26.1664 140.041 26.1962C140.078 26.226 140.122 26.2466 140.169 26.2563C140.216 26.2661 140.265 26.2646 140.311 26.2522L141.934 25.7868C141.984 25.7711 142.028 25.7431 142.064 25.7054C142.1 25.6677 142.125 25.6215 142.138 25.5712L143.727 19.408L146.917 18.2729C147.03 18.2269 147.126 18.1484 147.194 18.0473C147.262 17.9462 147.298 17.8272 147.298 17.7054C147.298 17.5836 147.262 17.4646 147.194 17.3635C147.126 17.2625 147.03 17.1839 146.917 17.1379C146.412 16.8692 145.828 16.7926 145.271 16.9222C144.953 17.013 144.056 17.3081 142.899 17.6941L138.563 13.5966C138.525 13.5586 138.477 13.5319 138.425 13.5199C138.373 13.5078 138.318 13.5108 138.268 13.5285L136.645 13.9939C136.598 14.0062 136.554 14.0301 136.519 14.0632C136.483 14.0964 136.456 14.1378 136.44 14.1839C136.425 14.23 136.421 14.2792 136.429 14.3273C136.437 14.3753 136.456 14.4206 136.486 14.4592L139.584 18.8291" fill="#FFB63B"/>
<path d="M135.623 20.1571L133.069 21.0424L131.163 20.543C131.105 20.5267 131.044 20.5283 130.987 20.5475C130.931 20.5668 130.881 20.6028 130.845 20.6509C130.81 20.6989 130.789 20.7566 130.787 20.8164C130.785 20.8762 130.801 20.9352 130.833 20.9856L132.173 23.2557C132.208 23.3164 132.265 23.3624 132.331 23.3853C132.398 23.4082 132.47 23.4065 132.536 23.3806L133.671 23.006H133.853L140.22 20.6792L139.925 25.9457C139.923 25.9936 139.933 26.0412 139.953 26.0847C139.973 26.1282 140.003 26.1664 140.041 26.1962C140.078 26.226 140.122 26.2466 140.169 26.2563C140.216 26.2661 140.265 26.2646 140.311 26.2522L141.934 25.7868C141.984 25.7711 142.028 25.7431 142.064 25.7054C142.1 25.6677 142.125 25.6215 142.138 25.5712L143.727 19.408L146.917 18.2729C147.03 18.2269 147.126 18.1484 147.194 18.0473C147.262 17.9462 147.298 17.8272 147.298 17.7054C147.298 17.5836 147.262 17.4646 147.194 17.3635C147.126 17.2625 147.03 17.1839 146.917 17.1379C146.412 16.8692 145.828 16.7926 145.271 16.9222C144.953 17.013 144.056 17.3081 142.899 17.6941L138.563 13.5966C138.525 13.5586 138.477 13.5319 138.425 13.5199C138.373 13.5078 138.318 13.5108 138.268 13.5285L136.645 13.9939C136.598 14.0062 136.554 14.0301 136.519 14.0632C136.483 14.0964 136.456 14.1378 136.44 14.1839C136.425 14.23 136.421 14.2792 136.429 14.3273C136.436 14.3753 136.456 14.4206 136.486 14.4592L139.584 18.8291" stroke="#231F20" stroke-linecap="round" stroke-linejoin="round"/>
<ellipse cx="25" cy="128" rx="9" ry="2" fill="#231F20"/>
<circle cx="139" cy="69" r="8" fill="#231F20"/>
<circle cx="139" cy="69" r="6" fill="#FFB63B"/>
</g>
<defs>
<filter id="filter0_d" x="0" y="0" width="169.393" height="139.379" filterUnits="userSpaceOnUse" color-interpolation-filters="sRGB">
<feFlood flood-opacity="0" result="BackgroundImageFix"/>
<feColorMatrix in="SourceAlpha" type="matrix" values="0 0 0 0 0 0 0 0 0 0 0 0 0 0 0 0 0 0 127 0"/>
<feOffset dy="4"/>
<feGaussianBlur stdDeviation="2"/>
<feColorMatrix type="matrix" values="0 0 0 0 0 0 0 0 0 0 0 0 0 0 0 0 0 0 0.25 0"/>
<feBlend mode="normal" in2="BackgroundImageFix" result="effect1_dropShadow"/>
<feBlend mode="normal" in="SourceGraphic" in2="effect1_dropShadow" result="shape"/>
</filter>
</defs>
</svg>
