<svg width="90" height="90" viewBox="0 0 90 90" fill="none" xmlns="http://www.w3.org/2000/svg">
<path d="M76.6417 39.0139C75.0532 38.2856 73.3256 37.9103 71.578 37.9142H66.9735C66.5392 37.9126 66.1089 37.9968 65.7072 38.1619C65.3055 38.3269 64.9404 38.5697 64.6327 38.8762C64.3251 39.1828 64.081 39.547 63.9144 39.9481C63.7479 40.3492 63.6621 40.7792 63.6621 41.2135V59.1481C63.6621 59.5829 63.7478 60.0135 63.9142 60.4153C64.0806 60.817 64.3245 61.1821 64.632 61.4896C64.9395 61.797 65.3045 62.041 65.7063 62.2074C66.1081 62.3738 66.5386 62.4594 66.9735 62.4594H71.3846C74.6668 62.4594 77.8145 61.1556 80.1353 58.8348C82.4561 56.5139 83.76 53.3662 83.76 50.0841C83.7596 48.4734 83.4388 46.8789 82.8164 45.3933C82.194 43.9078 81.2823 42.5609 80.1344 41.431C79.6664 40.9905 79.1654 40.5865 78.6358 40.2225L76.6417 39.0139ZM70.9375 57.299H63.9159V43.1471H70.9375C72.7509 43.2223 74.465 43.9956 75.7215 45.3053C76.978 46.615 77.6796 48.3598 77.6796 50.1747C77.6796 51.9897 76.978 53.7344 75.7215 55.0441C74.465 56.3538 72.7509 57.1271 70.9375 57.2023V57.299Z" fill="#F2C975" stroke="#231F20" stroke-width="2" stroke-linecap="round" stroke-linejoin="round"/>
<path d="M23.5869 30.5542H62.5258C63.7694 30.5542 64.9621 31.0482 65.8415 31.9276C66.7208 32.807 67.2149 33.9997 67.2149 35.2433V64.4656C67.2149 66.735 66.7673 68.9821 65.8977 71.0782C65.0282 73.1744 63.7537 75.0785 62.1474 76.6815C60.541 78.2845 58.6342 79.555 56.5362 80.4201C54.4382 81.2853 52.1902 81.7282 49.9208 81.7234H36.1436C31.5665 81.7234 27.1769 79.9052 23.9404 76.6687C20.7039 73.4322 18.8857 69.0426 18.8857 64.4656V35.195C18.8985 33.9576 19.3998 32.7755 20.2804 31.9062C21.161 31.0369 22.3495 30.551 23.5869 30.5542V30.5542Z" fill="#FFB63B" stroke="#231F20" stroke-width="2" stroke-miterlimit="10"/>
<path d="M67.1541 29.2369H18.5954C17.7477 29.2369 17.0605 29.9241 17.0605 30.7718V32.0045C17.0605 32.8521 17.7477 33.5393 18.5954 33.5393H67.1541C68.0018 33.5393 68.689 32.8521 68.689 32.0045V30.7718C68.689 29.9241 68.0018 29.2369 67.1541 29.2369Z" fill="#FFB63B" stroke="#231F20" stroke-width="2" stroke-miterlimit="10"/>
<path d="M23.1025 47.4012V62.0848" stroke="#231F20" stroke-width="2" stroke-linecap="round" stroke-linejoin="round"/>
<path d="M23.1025 38.2767V44.5369" stroke="#231F20" stroke-width="2" stroke-linecap="round" stroke-linejoin="round"/>
<path d="M50.5246 42.3253C52.3707 43.9058 53.6022 46.0852 54.0036 48.482C54.405 50.8789 53.9508 53.3406 52.7204 55.4363C51.4901 57.5321 49.5619 59.1285 47.2734 59.9461C44.9848 60.7638 42.4816 60.7506 40.2018 59.909C37.9219 59.0673 36.0107 57.4507 34.8024 55.3422C33.5942 53.2336 33.1659 50.7673 33.5925 48.3748C34.0191 45.9823 35.2734 43.816 37.136 42.2549C38.9986 40.6939 41.3508 39.8375 43.781 39.8357C45.2797 39.8321 46.7609 40.1581 48.1196 40.7905" fill="#F2C975"/>
<path d="M50.5246 42.3253C52.3707 43.9058 53.6022 46.0852 54.0036 48.482C54.405 50.8789 53.9508 53.3406 52.7204 55.4363C51.4901 57.5321 49.5619 59.1285 47.2734 59.9461C44.9848 60.7638 42.4816 60.7506 40.2018 59.909C37.9219 59.0673 36.0107 57.4507 34.8024 55.3422C33.5942 53.2336 33.1659 50.7673 33.5925 48.3748C34.0191 45.9823 35.2734 43.816 37.136 42.2549C38.9986 40.6939 41.3508 39.8375 43.781 39.8357C45.2797 39.8321 46.7609 40.1581 48.1196 40.7905" stroke="#231F20" stroke-width="2" stroke-linecap="round" stroke-linejoin="round"/>
<path d="M49.2927 53.6009L48.2292 52.3924H48.6159C48.6813 52.3909 48.745 52.3717 48.8003 52.3369C48.8556 52.3021 48.9005 52.253 48.9302 52.1948C48.9599 52.1366 48.9734 52.0715 48.9691 52.0063C48.9648 51.9411 48.943 51.8782 48.906 51.8244L47.3953 49.7941H47.5041C47.5803 49.7937 47.655 49.7733 47.7209 49.735C47.7867 49.6966 47.8413 49.6417 47.8793 49.5756C47.9172 49.5095 47.9371 49.4347 47.937 49.3585C47.9369 49.2823 47.9168 49.2074 47.8787 49.1415L44.3619 43.1834C44.3059 43.0908 44.227 43.0143 44.1328 42.9612C44.0386 42.908 43.9323 42.8801 43.8241 42.8801C43.7159 42.8801 43.6096 42.908 43.5154 42.9612C43.4212 43.0143 43.3423 43.0908 43.2863 43.1834L39.7816 49.1415C39.7435 49.2074 39.7234 49.2823 39.7233 49.3585C39.7232 49.4347 39.7431 49.5095 39.781 49.5756C39.819 49.6417 39.8736 49.6966 39.9394 49.735C40.0053 49.7733 40.08 49.7937 40.1562 49.7941V49.7941L38.6697 51.8365C38.6316 51.8892 38.6088 51.9516 38.6041 52.0165C38.5993 52.0814 38.6128 52.1464 38.6429 52.2041C38.673 52.2618 38.7186 52.31 38.7746 52.3433C38.8306 52.3765 38.8947 52.3936 38.9598 52.3924H39.2982L38.2588 53.6009C38.1937 53.684 38.153 53.7835 38.1412 53.8884C38.1295 53.9932 38.1472 54.0993 38.1924 54.1947C38.2375 54.2901 38.3084 54.371 38.397 54.4283C38.4856 54.4857 38.5884 54.5172 38.6939 54.5194H43.4555V55.8367H42.8633C42.8228 55.8281 42.7809 55.8287 42.7407 55.8384C42.7005 55.8481 42.6628 55.8666 42.6307 55.8927C42.5985 55.9187 42.5726 55.9516 42.5548 55.989C42.537 56.0264 42.5277 56.0672 42.5277 56.1086C42.5277 56.15 42.537 56.1909 42.5548 56.2283C42.5726 56.2656 42.5985 56.2986 42.6307 56.3246C42.6628 56.3507 42.7005 56.3692 42.7407 56.3789C42.7809 56.3886 42.8228 56.3891 42.8633 56.3806H44.7245C44.765 56.3891 44.8069 56.3886 44.8471 56.3789C44.8874 56.3692 44.9249 56.3507 44.9571 56.3246C44.9893 56.2986 45.0152 56.2656 45.033 56.2283C45.0508 56.1909 45.0601 56.15 45.0601 56.1086C45.0601 56.0672 45.0508 56.0264 45.033 55.989C45.0152 55.9516 44.9893 55.9187 44.9571 55.8927C44.9249 55.8666 44.8874 55.8481 44.8471 55.8384C44.8069 55.8287 44.765 55.8281 44.7245 55.8367H44.1202V54.5194H48.8576C48.9652 54.5221 49.0712 54.4935 49.1629 54.4371C49.2545 54.3807 49.3278 54.2989 49.3738 54.2017C49.4199 54.1044 49.4368 53.9959 49.4224 53.8893C49.408 53.7826 49.3629 53.6825 49.2927 53.6009Z" fill="#FFB63B" stroke="#231F20" stroke-width="2" stroke-miterlimit="10"/>
<path d="M18.4986 66.4476H67.2265C67.417 66.4476 67.6055 66.4851 67.7815 66.558C67.9574 66.6309 68.1173 66.7377 68.252 66.8724C68.3866 67.0071 68.4935 67.1669 68.5663 67.3429C68.6392 67.5188 68.6767 67.7074 68.6767 67.8979V73.6746C68.6767 75.9183 67.7855 78.07 66.199 79.6565C64.6125 81.243 62.4607 82.1343 60.217 82.1343H25.4597C23.2161 82.1343 21.0643 81.243 19.4778 79.6565C17.8913 78.07 17 75.9183 17 73.6746V67.8979C16.9999 67.7033 17.0389 67.5107 17.1148 67.3315C17.1907 67.1523 17.3019 66.9902 17.4417 66.8549C17.5815 66.7196 17.7471 66.6138 17.9287 66.5438C18.1103 66.4738 18.3041 66.4411 18.4986 66.4476Z" fill="#F2C975" stroke="#231F20" stroke-width="2" stroke-miterlimit="10"/>
<path d="M42.875 7H27.4299C25.2504 7 23.1601 7.86582 21.6189 9.407C20.0777 10.9482 19.2119 13.0385 19.2119 15.218V29.237H66.26V15.218C66.2568 13.0394 65.3899 10.951 63.8495 9.41053C62.309 7.87005 60.2206 7.0032 58.042 7H48.12" fill="#F2C975"/>
<path d="M42.875 7H27.4299C25.2504 7 23.1601 7.86582 21.6189 9.407C20.0777 10.9482 19.2119 13.0385 19.2119 15.218V29.237H66.26V15.218C66.2568 13.0394 65.3899 10.951 63.8495 9.41053C62.309 7.87005 60.2206 7.0032 58.042 7H48.12" stroke="#231F20" stroke-width="2" stroke-linecap="round" stroke-linejoin="round"/>
<path d="M61.0029 13.5986V24.5599" stroke="#231F20" stroke-width="2" stroke-linecap="round" stroke-linejoin="round"/>
<path d="M52.0596 13.5986V24.5599" stroke="#231F20" stroke-width="2" stroke-linecap="round" stroke-linejoin="round"/>
<path d="M43.1172 13.5986V24.5599" stroke="#231F20" stroke-width="2" stroke-linecap="round" stroke-linejoin="round"/>
<path d="M34.1865 13.5986V24.5599" stroke="#231F20" stroke-width="2" stroke-linecap="round" stroke-linejoin="round"/>
<path d="M25.2422 13.5986V24.5599" stroke="#231F20" stroke-width="2" stroke-linecap="round" stroke-linejoin="round"/>
<path d="M61.9217 70.4357C61.9987 72.004 61.6167 73.5606 60.8225 74.9151C60.0283 76.2695 58.8564 77.363 57.4502 78.0616" stroke="#231F20" stroke-width="2" stroke-linecap="round" stroke-linejoin="round"/>
</svg>
