<svg width="147" height="108" viewBox="0 0 147 108" fill="none" xmlns="http://www.w3.org/2000/svg">
<path d="M7.61791 31.5767H4.45512C2.92822 31.5767 1.69043 32.8145 1.69043 34.3414V48.4082C1.69043 49.935 2.92822 51.1728 4.45512 51.1728H7.61791C9.1448 51.1728 10.3826 49.935 10.3826 48.4082V34.3414C10.3826 32.8145 9.1448 31.5767 7.61791 31.5767Z" fill="#FFBC4B" stroke="#211E1D" stroke-width="2" stroke-miterlimit="10"/>
<path d="M142.425 31.5767H139.262C137.735 31.5767 136.497 32.8145 136.497 34.3414V48.4082C136.497 49.935 137.735 51.1728 139.262 51.1728H142.425C143.951 51.1728 145.189 49.935 145.189 48.4082V34.3414C145.189 32.8145 143.951 31.5767 142.425 31.5767Z" fill="#FFBC4B" stroke="#211E1D" stroke-width="2" stroke-miterlimit="10"/>
<path d="M9.10156 58.9361V32.9701C9.10155 31.7116 9.35016 30.4655 9.8331 29.3034C10.316 28.1413 11.0238 27.086 11.9157 26.1982C12.8077 25.3103 13.8662 24.6075 15.0305 24.1299C16.1949 23.6523 17.4421 23.4095 18.7006 23.4153H127.651C128.907 23.4124 130.151 23.6576 131.311 24.1367C132.472 24.6158 133.526 25.3195 134.414 26.2074C135.302 27.0952 136.006 28.1496 136.485 29.3102C136.964 30.4707 137.209 31.7145 137.206 32.9701V97.2878C137.209 98.5445 136.964 99.7893 136.485 100.951C136.006 102.113 135.303 103.169 134.416 104.058C133.528 104.948 132.474 105.654 131.313 106.135C130.152 106.617 128.908 106.865 127.651 106.865H18.7006C16.1606 106.865 13.7247 105.856 11.9287 104.06C10.1327 102.264 9.1237 99.8278 9.1237 97.2878V71.9854" fill="#FFD985"/>
<path d="M9.10156 58.9361V32.9701C9.10155 31.7116 9.35016 30.4655 9.8331 29.3034C10.316 28.1413 11.0238 27.086 11.9157 26.1982C12.8077 25.3103 13.8662 24.6075 15.0305 24.1299C16.1949 23.6523 17.4421 23.4095 18.7006 23.4153H127.651C128.907 23.4124 130.151 23.6576 131.311 24.1367C132.472 24.6158 133.526 25.3195 134.414 26.2074C135.302 27.0952 136.006 28.1496 136.485 29.3102C136.964 30.4707 137.209 31.7145 137.206 32.9701V97.2878C137.209 98.5445 136.964 99.7893 136.485 100.951C136.006 102.113 135.303 103.169 134.416 104.058C133.528 104.948 132.474 105.654 131.313 106.135C130.152 106.617 128.908 106.865 127.651 106.865H18.7006C16.1606 106.865 13.7247 105.856 11.9287 104.06C10.1327 102.264 9.1237 99.8278 9.1237 97.2878V71.9854" stroke="#211E1D" stroke-width="2" stroke-linecap="round" stroke-linejoin="round"/>
<path d="M26.507 15.3076H42.7634C43.4614 15.3076 44.1309 15.5849 44.6245 16.0785C45.1181 16.5721 45.3954 17.2416 45.3954 17.9396V23.2036H23.875V17.9175C23.8808 17.2233 24.1607 16.5595 24.6536 16.0707C25.1466 15.5819 25.8128 15.3076 26.507 15.3076V15.3076Z" fill="#FFBC4B" stroke="#211E1D" stroke-width="2" stroke-miterlimit="10"/>
<path d="M61.3265 1H108.779C110.112 1 111.39 1.68987 112.333 2.91785C113.276 4.14582 113.805 5.81133 113.805 7.54795V23.1175H56.2998V7.54795C56.2998 5.81133 56.8294 4.14582 57.7721 2.91785C58.7148 1.68987 59.9933 1 61.3265 1Z" fill="#FFD985" stroke="#211E1D" stroke-width="2" stroke-miterlimit="10"/>
<path d="M94.6506 5.21179H72.9533C71.0844 5.21179 69.5693 6.72685 69.5693 8.59577V14.656C69.5693 16.5249 71.0844 18.04 72.9533 18.04H94.6506C96.5195 18.04 98.0346 16.5249 98.0346 14.656V8.59577C98.0346 6.72685 96.5195 5.21179 94.6506 5.21179Z" fill="#FFBC4B" stroke="#211E1D" stroke-width="2" stroke-miterlimit="10"/>
<path d="M86.6558 8.42352H81.237C79.6795 8.42352 78.417 9.36847 78.417 10.5341V12.9482C78.417 14.1138 79.6795 15.0588 81.237 15.0588H86.6558C88.2132 15.0588 89.4758 14.1138 89.4758 12.9482V10.5341C89.4758 9.36847 88.2132 8.42352 86.6558 8.42352Z" fill="#FFD985" stroke="#211E1D" stroke-width="2" stroke-miterlimit="10"/>
<path d="M137 32H9V43H137V32Z" fill="#FFBC4B" stroke="#211E1D" stroke-width="2" stroke-linecap="round" stroke-linejoin="round"/>
<path d="M137.183 88.5292H9.67578V97.2877H137.183V88.5292Z" fill="#FFBC4B" stroke="#211E1D" stroke-width="2" stroke-miterlimit="10"/>
<path d="M54.5758 44.626C59.8115 37.8767 67.4188 33.3718 75.854 32.0255C84.2893 30.6791 92.9209 32.592 99.9975 37.3762C107.074 42.1603 112.066 49.4574 113.96 57.7868C115.854 66.1162 114.508 74.8542 110.196 82.228C105.884 89.6017 98.9282 95.059 90.7401 97.4925C82.552 99.926 73.7448 99.1535 66.1054 95.3317C58.466 91.51 52.5665 84.9252 49.6038 76.9134C46.6411 68.9016 46.8372 60.0627 50.1523 52.1902" fill="#FFD985"/>
<path d="M54.5758 44.626C59.8115 37.8767 67.4188 33.3718 75.854 32.0255C84.2893 30.6791 92.9209 32.592 99.9975 37.3762C107.074 42.1603 112.066 49.4574 113.96 57.7868C115.854 66.1162 114.508 74.8542 110.196 82.228C105.884 89.6017 98.9282 95.059 90.7401 97.4925C82.552 99.926 73.7448 99.1535 66.1054 95.3317C58.466 91.51 52.5665 84.9252 49.6038 76.9134C46.6411 68.9016 46.8372 60.0627 50.1523 52.1902" stroke="#211E1D" stroke-width="2" stroke-linecap="round" stroke-linejoin="round"/>
<path d="M110.133 65.1289C110.133 70.8682 108.431 76.4785 105.243 81.2505C102.054 86.0226 97.522 89.7419 92.2196 91.9382C86.9173 94.1345 81.0826 94.7092 75.4537 93.5895C69.8247 92.4698 64.6541 89.7061 60.5959 85.6479C56.5376 81.5896 53.774 76.4191 52.6543 70.7901C51.5346 65.1611 52.1092 59.3265 54.3055 54.0241C56.5019 48.7217 60.2212 44.1897 64.9932 41.0012C69.7652 37.8126 75.3756 36.1107 81.1149 36.1107C88.8092 36.1166 96.1867 39.1757 101.627 44.6164C107.068 50.0571 110.127 57.4346 110.133 65.1289Z" fill="#FFBC4B" stroke="#211E1D" stroke-width="2" stroke-miterlimit="10"/>
<path d="M97.7039 53.097C100.685 57.2326 102.008 62.3346 101.414 67.3976C100.82 72.4607 98.3512 77.1177 94.494 80.4508C90.6367 83.7838 85.6709 85.5513 80.5752 85.4049C75.4795 85.2585 70.6234 83.2088 66.9639 79.6597C63.3044 76.1106 61.1069 71.3196 60.8045 66.2307C60.5021 61.1419 62.1166 56.1243 65.33 52.1668C68.5434 48.2092 73.1226 45.5988 78.1651 44.8499C83.2076 44.1009 88.3477 45.2678 92.5726 48.1206" fill="#211E1D"/>
<path d="M97.7039 53.097C100.685 57.2326 102.008 62.3346 101.414 67.3976C100.82 72.4607 98.3512 77.1177 94.494 80.4508C90.6367 83.7838 85.6709 85.5513 80.5752 85.4049C75.4795 85.2585 70.6234 83.2088 66.9639 79.6597C63.3044 76.1106 61.1069 71.3196 60.8045 66.2307C60.5021 61.1419 62.1166 56.1243 65.33 52.1668C68.5434 48.2092 73.1226 45.5988 78.1651 44.8499C83.2076 44.1009 88.3477 45.2678 92.5726 48.1206" stroke="#211E1D" stroke-width="2" stroke-linecap="round" stroke-linejoin="round"/>
<path d="M81.3369 58.936L90.2281 71.9854" stroke="#FFBC4B" stroke-width="2" stroke-linecap="round" stroke-linejoin="round"/>
<path d="M73.4404 58.2725L81.5797 70.7468" stroke="#FFBC4B" stroke-width="2" stroke-linecap="round" stroke-linejoin="round"/>
<path d="M31.3072 70.7468H22.2832C21.4159 70.7468 20.7129 71.4499 20.7129 72.3172V80.3679C20.7129 81.2352 21.4159 81.9383 22.2832 81.9383H31.3072C32.1745 81.9383 32.8775 81.2352 32.8775 80.3679V72.3172C32.8775 71.4499 32.1745 70.7468 31.3072 70.7468Z" fill="#FFBC4B" stroke="#211E1D" stroke-width="2" stroke-miterlimit="10"/>
</svg>
