<svg width="90" height="90" viewBox="0 0 90 90" fill="none" xmlns="http://www.w3.org/2000/svg">
<path d="M75.4537 80.1338H20.084V5.3847L75.4537 5.58298V80.1338Z" fill="#FFB63B"/>
<path d="M71.3007 80.1338H20.084V9.53665H57.4591L71.3018 23.3794L71.3007 80.1338Z" fill="#FFB63B"/>
<path d="M69.9166 85.4733H14.5469V10.9214H56.0739L69.9166 24.7641V85.4733Z" fill="#F2C975"/>
<path d="M56.0739 41.374H27.0049V35.8374L31.1622 34.4516L33.9337 28.9149H47.7764L50.5479 34.4516L56.0846 35.8374L56.0739 41.374Z" fill="#FFB63B"/>
<path d="M50.5375 34.4526H31.1582L33.9297 28.916H47.7724L50.5375 34.4526Z" fill="#FFB63B"/>
<path d="M33.8071 44.9717C35.8676 44.9717 37.538 43.5399 37.538 41.7738C37.538 40.0076 35.8676 38.5759 33.8071 38.5759C31.7466 38.5759 30.0762 40.0076 30.0762 41.7738C30.0762 43.5399 31.7466 44.9717 33.8071 44.9717Z" fill="#EAEAE8"/>
<path d="M48.7304 44.9717C50.2022 44.9717 51.3953 43.5399 51.3953 41.7738C51.3953 40.0076 50.2022 38.5759 48.7304 38.5759C47.2586 38.5759 46.0654 40.0076 46.0654 41.7738C46.0654 43.5399 47.2586 44.9717 48.7304 44.9717Z" fill="#EAEAE8"/>
<path d="M33.9297 44.1434C33.3816 44.1434 32.8457 43.9809 32.39 43.6763C31.9342 43.3718 31.5789 42.9389 31.3692 42.4325C31.1594 41.9261 31.1045 41.3688 31.2115 40.8312C31.3184 40.2936 31.5824 39.7997 31.97 39.4121C32.3576 39.0245 32.8514 38.7606 33.389 38.6536C33.9267 38.5467 34.4839 38.6016 34.9903 38.8113C35.4968 39.0211 35.9296 39.3763 36.2342 39.8321C36.5387 40.2879 36.7013 40.8237 36.7013 41.3719C36.7013 42.1069 36.4093 42.8119 35.8895 43.3317C35.3697 43.8514 34.6648 44.1434 33.9297 44.1434ZM33.9297 39.9861C33.6557 39.9861 33.3877 40.0674 33.1598 40.2197C32.932 40.372 32.7543 40.5884 32.6495 40.8416C32.5446 41.0948 32.5171 41.3734 32.5706 41.6422C32.6241 41.9111 32.756 42.158 32.9498 42.3518C33.1436 42.5456 33.3906 42.6776 33.6594 42.731C33.9282 42.7845 34.2068 42.7571 34.46 42.6522C34.7133 42.5473 34.9297 42.3697 35.0819 42.1418C35.2342 41.9139 35.3155 41.646 35.3155 41.3719C35.3138 41.0055 35.1671 40.6546 34.9074 40.3961C34.6477 40.1376 34.2962 39.9925 33.9297 39.9925V39.9861Z" fill="#CBCBCB"/>
<path d="M49.1553 44.1434C48.6072 44.1434 48.0713 43.9809 47.6155 43.6763C47.1598 43.3718 46.8045 42.9389 46.5948 42.4325C46.385 41.9261 46.3301 41.3688 46.437 40.8312C46.544 40.2936 46.808 39.7997 47.1956 39.4121C47.5832 39.0245 48.077 38.7606 48.6146 38.6536C49.1523 38.5467 49.7095 38.6016 50.2159 38.8113C50.7224 39.0211 51.1552 39.3763 51.4597 39.8321C51.7643 40.2879 51.9269 40.8237 51.9269 41.3719C51.9269 42.1069 51.6348 42.8119 51.1151 43.3317C50.5953 43.8514 49.8904 44.1434 49.1553 44.1434ZM49.1553 39.9861C48.8812 39.9861 48.6133 40.0674 48.3854 40.2197C48.1575 40.372 47.9799 40.5884 47.875 40.8416C47.7702 41.0948 47.7427 41.3734 47.7962 41.6422C47.8497 41.9111 47.9816 42.158 48.1754 42.3518C48.3692 42.5456 48.6161 42.6776 48.885 42.731C49.1538 42.7845 49.4324 42.7571 49.6856 42.6522C49.9389 42.5473 50.1553 42.3697 50.3075 42.1418C50.4598 41.9139 50.5411 41.646 50.5411 41.3719C50.5394 41.0055 50.3926 40.6546 50.1329 40.3961C49.8732 40.1376 49.5217 39.9925 49.1553 39.9925V39.9861Z" fill="#CBCBCB"/>
<path d="M39.4629 28.916H42.2344V35.8373H39.4629V28.916Z" fill="#0BAFEA"/>
<path d="M69.9159 24.7641H56.0732V10.9214L69.9159 24.7641Z" fill="#FFD2C6"/>
<path d="M44.9992 52.4516H24.2373C23.8698 52.4516 23.5173 52.3056 23.2575 52.0457C22.9976 51.7858 22.8516 51.4333 22.8516 51.0658C22.8516 50.6983 22.9976 50.3458 23.2575 50.0859C23.5173 49.8261 23.8698 49.6801 24.2373 49.6801H45.0014C45.3689 49.6801 45.7214 49.8261 45.9813 50.0859C46.2411 50.3458 46.3871 50.6983 46.3871 51.0658C46.3871 51.4333 46.2411 51.7858 45.9813 52.0457C45.7214 52.3056 45.3689 52.4516 45.0014 52.4516H44.9992Z" fill="#CBCBCB"/>
<path d="M31.1563 59.3729H26.999C26.6315 59.3729 26.279 59.2269 26.0192 58.9671C25.7593 58.7072 25.6133 58.3547 25.6133 57.9872C25.6133 57.6196 25.7593 57.2672 26.0192 57.0073C26.279 56.7474 26.6315 56.6014 26.999 56.6014H31.1563C31.5239 56.6014 31.8763 56.7474 32.1362 57.0073C32.3961 57.2672 32.5421 57.6196 32.5421 57.9872C32.5421 58.3547 32.3961 58.7072 32.1362 58.9671C31.8763 59.2269 31.5239 59.3729 31.1563 59.3729Z" fill="#CBCBCB"/>
<path d="M38.0801 59.3729H36.6944C36.3268 59.3729 35.9744 59.2269 35.7145 58.9671C35.4546 58.7072 35.3086 58.3547 35.3086 57.9872C35.3086 57.6196 35.4546 57.2672 35.7145 57.0073C35.9744 56.7474 36.3268 56.6014 36.6944 56.6014H38.0801C38.4477 56.6014 38.8001 56.7474 39.06 57.0073C39.3199 57.2672 39.4659 57.6196 39.4659 57.9872C39.4659 58.3547 39.3199 58.7072 39.06 58.9671C38.8001 59.2269 38.4477 59.3729 38.0801 59.3729Z" fill="#CBCBCB"/>
<path d="M56.0732 59.3729H43.6162C43.2487 59.3729 42.8962 59.2269 42.6364 58.9671C42.3765 58.7072 42.2305 58.3547 42.2305 57.9872C42.2305 57.6196 42.3765 57.2672 42.6364 57.0073C42.8962 56.7474 43.2487 56.6014 43.6162 56.6014H56.0742C56.4418 56.6014 56.7942 56.7474 57.0541 57.0073C57.314 57.2672 57.46 57.6196 57.46 57.9872C57.46 58.3547 57.314 58.7072 57.0541 58.9671C56.7942 59.2269 56.4418 59.3729 56.0742 59.3729H56.0732Z" fill="#CBCBCB"/>
<path d="M41.2682 80.1487C45.6836 80.1487 49.263 76.5693 49.263 72.1539C49.263 67.7385 45.6836 64.1591 41.2682 64.1591C36.8528 64.1591 33.2734 67.7385 33.2734 72.1539C33.2734 76.5693 36.8528 80.1487 41.2682 80.1487Z" fill="#FFB63B"/>
<path d="M42.2308 74.5961C41.8635 74.5962 41.5112 74.4505 41.2512 74.191L38.4797 71.4195C38.237 71.1564 38.1054 70.8097 38.1126 70.4519C38.1198 70.094 38.2651 69.7529 38.5182 69.4998C38.7713 69.2467 39.1125 69.1014 39.4703 69.0942C39.8281 69.087 40.1749 69.2186 40.4379 69.4613L42.3566 71.38L52.4706 63.7946C52.6151 63.6753 52.7824 63.5866 52.9622 63.5339C53.142 63.4811 53.3306 63.4653 53.5167 63.4876C53.7028 63.5098 53.8824 63.5695 54.0447 63.6631C54.2071 63.7567 54.3487 63.8823 54.4611 64.0323C54.5736 64.1822 54.6544 64.3534 54.6988 64.5354C54.7431 64.7175 54.7501 64.9067 54.7193 65.0915C54.6885 65.2764 54.6205 65.453 54.5194 65.6108C54.4184 65.7687 54.2863 65.9043 54.1313 66.0097L43.057 74.3146C42.8191 74.495 42.5293 74.5937 42.2308 74.5961Z" fill="#02A437"/>
<path d="M60.2267 52.4516H50.5381C50.1706 52.4516 49.8181 52.3056 49.5582 52.0457C49.2984 51.7858 49.1523 51.4333 49.1523 51.0658C49.1523 50.6983 49.2984 50.3458 49.5582 50.0859C49.8181 49.8261 50.1706 49.6801 50.5381 49.6801H60.2278C60.5953 49.6801 60.9478 49.8261 61.2077 50.0859C61.4675 50.3458 61.6135 50.6983 61.6135 51.0658C61.6135 51.4333 61.4675 51.7858 61.2077 52.0457C60.9478 52.3056 60.5953 52.4516 60.2278 52.4516H60.2267Z" fill="#CBCBCB"/>
<path d="M61.6104 73.2157H57.4532C57.0856 73.2157 56.7332 73.0696 56.4733 72.8098C56.2134 72.5499 56.0674 72.1974 56.0674 71.8299C56.0674 71.4623 56.2134 71.1099 56.4733 70.85C56.7332 70.5901 57.0856 70.4441 57.4532 70.4441H61.6104C61.978 70.4441 62.3305 70.5901 62.5903 70.85C62.8502 71.1099 62.9962 71.4623 62.9962 71.8299C62.9962 72.1974 62.8502 72.5499 62.5903 72.8098C62.3305 73.0696 61.978 73.2157 61.6104 73.2157Z" fill="#CBCBCB"/>
<path d="M64.3782 78.7523H57.459C57.0915 78.7523 56.739 78.6063 56.4791 78.3464C56.2192 78.0865 56.0732 77.7341 56.0732 77.3665C56.0732 76.999 56.2192 76.6465 56.4791 76.3867C56.739 76.1268 57.0915 75.9808 57.459 75.9808H64.3804C64.7479 75.9808 65.1004 76.1268 65.3602 76.3867C65.6201 76.6465 65.7661 76.999 65.7661 77.3665C65.7661 77.7341 65.6201 78.0865 65.3602 78.3464C65.1004 78.6063 64.7479 78.7523 64.3804 78.7523H64.3782Z" fill="#CBCBCB"/>
<path d="M75.4585 4.19827L20.0909 4C19.7234 4 19.3709 4.146 19.111 4.40588C18.8512 4.66576 18.7052 5.01823 18.7052 5.38576V9.54305H14.5479C14.1803 9.54305 13.8279 9.68905 13.568 9.94893C13.3081 10.2088 13.1621 10.5613 13.1621 10.9288V85.4732C13.1621 85.8408 13.3081 86.1932 13.568 86.4531C13.8279 86.713 14.1803 86.859 14.5479 86.859H69.9176C70.0996 86.859 70.2798 86.8232 70.4479 86.7535C70.6161 86.6839 70.7688 86.5818 70.8975 86.4531C71.0262 86.3244 71.1283 86.1717 71.1979 86.0035C71.2675 85.8354 71.3034 85.6552 71.3034 85.4732V81.5174H75.4607C75.8282 81.5174 76.1807 81.3714 76.4405 81.1115C76.7004 80.8517 76.8464 80.4992 76.8464 80.1317V5.5819C76.8461 5.39992 76.81 5.21978 76.7401 5.05176C76.6702 4.88373 76.5679 4.73112 76.439 4.60264C76.3102 4.47416 76.1572 4.37232 75.989 4.30294C75.8208 4.23356 75.6405 4.19799 75.4585 4.19827ZM68.5297 84.0885H15.9336V12.305H54.6923V24.7641C54.6923 25.1316 54.8383 25.4841 55.0982 25.7439C55.3581 26.0038 55.7106 26.1498 56.0781 26.1498H68.5361L68.5297 84.0885ZM57.4553 14.2674L66.5715 23.3836H57.4553V14.2674ZM74.0664 78.7587H71.2948V24.7641C71.2947 24.3971 71.149 24.0452 70.8898 23.7855L57.0524 9.94279C56.7927 9.68353 56.4408 9.53785 56.0738 9.53772H21.4671V6.77153L74.0685 6.95913L74.0664 78.7587Z" fill="#3B3735"/>
<path d="M27.006 42.7587H30.0131C30.3016 43.566 30.8326 44.2643 31.5334 44.7581C32.2343 45.2518 33.0706 45.5169 33.9279 45.5169C34.7851 45.5169 35.6215 45.2518 36.3223 44.7581C37.0231 44.2643 37.5541 43.566 37.8426 42.7587H45.2405C45.529 43.566 46.06 44.2643 46.7608 44.7581C47.4616 45.2518 48.298 45.5169 49.1553 45.5169C50.0125 45.5169 50.8489 45.2518 51.5497 44.7581C52.2505 44.2643 52.7815 43.566 53.07 42.7587H56.0771C56.4447 42.7587 56.7971 42.6127 57.057 42.3528C57.3169 42.0929 57.4629 41.7405 57.4629 41.3729V35.8363C57.4627 35.5276 57.3593 35.2277 57.1693 34.9844C56.9793 34.7411 56.7135 34.5682 56.414 34.4932L51.4945 33.263L49.0108 28.2956C48.8958 28.0658 48.7191 27.8726 48.5006 27.7374C48.282 27.6023 48.0302 27.5305 47.7732 27.5302H33.9252C33.6682 27.5305 33.4164 27.6023 33.1979 27.7374C32.9793 27.8726 32.8026 28.0658 32.6876 28.2956L30.1751 33.3195L26.5657 34.522C26.2902 34.614 26.0506 34.7903 25.8807 35.026C25.7109 35.2616 25.6194 35.5447 25.6191 35.8352V41.3719C25.619 41.554 25.6548 41.7344 25.7244 41.9028C25.7941 42.0711 25.8962 42.224 26.025 42.3528C26.1538 42.4816 26.3068 42.5838 26.4751 42.6534C26.6434 42.7231 26.8238 42.7588 27.006 42.7587ZM33.9273 42.7587C33.6532 42.7587 33.3853 42.6774 33.1574 42.5252C32.9295 42.3729 32.7519 42.1565 32.647 41.9033C32.5422 41.65 32.5147 41.3714 32.5682 41.1026C32.6217 40.8338 32.7536 40.5869 32.9474 40.3931C33.1413 40.1993 33.3882 40.0673 33.657 40.0138C33.9258 39.9603 34.2044 39.9878 34.4576 40.0927C34.7108 40.1976 34.9273 40.3752 35.0796 40.6031C35.2318 40.8309 35.3131 41.0989 35.3131 41.3729C35.3131 41.5551 35.2772 41.7355 35.2074 41.9037C35.1376 42.072 35.0354 42.2249 34.9065 42.3536C34.7776 42.4823 34.6245 42.5843 34.4562 42.6538C34.2878 42.7234 34.1074 42.759 33.9252 42.7587H33.9273ZM49.1537 42.7587C48.8796 42.7587 48.6117 42.6774 48.3838 42.5252C48.1559 42.3729 47.9783 42.1565 47.8734 41.9033C47.7685 41.65 47.7411 41.3714 47.7945 41.1026C47.848 40.8338 47.98 40.5869 48.1738 40.3931C48.3676 40.1993 48.6145 40.0673 48.8833 40.0138C49.1521 39.9603 49.4308 39.9878 49.684 40.0927C49.9372 40.1976 50.1536 40.3752 50.3059 40.6031C50.4582 40.8309 50.5394 41.0989 50.5394 41.3729C50.5394 41.555 50.5035 41.7353 50.4338 41.9035C50.3641 42.0717 50.262 42.2245 50.1332 42.3532C50.0044 42.4819 49.8515 42.584 49.6832 42.6535C49.515 42.7231 49.3347 42.7588 49.1526 42.7587H49.1537ZM48.3009 33.069H42.2355V30.2975H46.9173L48.3009 33.069ZM34.7854 30.2975H39.4672V33.069H33.4018L34.7854 30.2975ZM28.3896 36.8319L31.3829 35.8342H50.3678L54.6903 36.9151V39.9872H53.0679C52.7794 39.1799 52.2484 38.4816 51.5476 37.9878C50.8467 37.494 50.0104 37.229 49.1531 37.229C48.2958 37.229 47.4595 37.494 46.7587 37.9878C46.0579 38.4816 45.5269 39.1799 45.2384 39.9872H37.8405C37.552 39.1799 37.021 38.4816 36.3202 37.9878C35.6193 37.494 34.783 37.229 33.9257 37.229C33.0684 37.229 32.2321 37.494 31.5313 37.9878C30.8305 38.4816 30.2995 39.1799 30.011 39.9872H28.3917L28.3896 36.8319Z" fill="#3B3735"/>
<path d="M46.3839 51.0658C46.3839 50.8838 46.3481 50.7036 46.2785 50.5355C46.2088 50.3674 46.1067 50.2146 45.9781 50.0859C45.8494 49.9573 45.6966 49.8552 45.5285 49.7856C45.3604 49.7159 45.1802 49.6801 44.9982 49.6801H24.2373C23.8698 49.6801 23.5173 49.8261 23.2575 50.0859C22.9976 50.3458 22.8516 50.6983 22.8516 51.0658C22.8516 51.4333 22.9976 51.7858 23.2575 52.0457C23.5173 52.3056 23.8698 52.4516 24.2373 52.4516H45.0014C45.3684 52.4507 45.72 52.3043 45.9792 52.0446C46.2384 51.7848 46.3839 51.4328 46.3839 51.0658Z" fill="#3B3735"/>
<path d="M31.1563 56.6014H26.999C26.6315 56.6014 26.279 56.7474 26.0192 57.0073C25.7593 57.2672 25.6133 57.6196 25.6133 57.9872C25.6133 58.3547 25.7593 58.7072 26.0192 58.9671C26.279 59.2269 26.6315 59.3729 26.999 59.3729H31.1563C31.5239 59.3729 31.8763 59.2269 32.1362 58.9671C32.3961 58.7072 32.5421 58.3547 32.5421 57.9872C32.5421 57.6196 32.3961 57.2672 32.1362 57.0073C31.8763 56.7474 31.5239 56.6014 31.1563 56.6014Z" fill="#3B3735"/>
<path d="M36.6953 56.6014C36.3278 56.6014 35.9753 56.7474 35.7155 57.0073C35.4556 57.2672 35.3096 57.6196 35.3096 57.9872C35.3096 58.3547 35.4556 58.7072 35.7155 58.9671C35.9753 59.2269 36.3278 59.3729 36.6953 59.3729H38.0811C38.4486 59.3729 38.8011 59.2269 39.061 58.9671C39.3209 58.7072 39.4669 58.3547 39.4669 57.9872C39.4669 57.6196 39.3209 57.2672 39.061 57.0073C38.8011 56.7474 38.4486 56.6014 38.0811 56.6014H36.6953Z" fill="#3B3735"/>
<path d="M57.4568 57.9872C57.4568 57.6196 57.3108 57.2672 57.0509 57.0073C56.791 56.7474 56.4386 56.6014 56.071 56.6014H43.6162C43.2487 56.6014 42.8962 56.7474 42.6364 57.0073C42.3765 57.2672 42.2305 57.6196 42.2305 57.9872C42.2305 58.3547 42.3765 58.7072 42.6364 58.9671C42.8962 59.2269 43.2487 59.3729 43.6162 59.3729H56.0742C56.4412 59.3721 56.7929 59.2257 57.052 58.9659C57.3112 58.7061 57.4568 58.3541 57.4568 57.9872Z" fill="#3B3735"/>
<path d="M52.4733 63.7999L49.8084 65.7997C48.2841 63.8916 46.0939 62.6314 43.6782 62.2725C41.2626 61.9135 38.8006 62.4825 36.7874 63.8649C34.7741 65.2473 33.3589 67.3407 32.8264 69.7241C32.2938 72.1075 32.6833 74.6042 33.9167 76.7121C35.15 78.82 37.1356 80.3827 39.4743 81.0861C41.813 81.7895 44.3313 81.5814 46.5228 80.5037C48.7143 79.4259 50.4165 77.5584 51.2871 75.2766C52.1577 72.9949 52.1321 70.4681 51.2155 68.2045L54.1362 66.015C54.4112 65.7882 54.5881 65.4642 54.6304 65.1103C54.6727 64.7564 54.5769 64.3999 54.3631 64.1147C54.1493 63.8296 53.8339 63.6378 53.4824 63.5791C53.1308 63.5205 52.7702 63.5996 52.4755 63.7999H52.4733ZM49.1507 71.8288C49.1522 73.4623 48.5765 75.0439 47.5252 76.2942C46.4739 77.5445 45.0147 78.3832 43.4051 78.6621C41.7956 78.9411 40.1392 78.6424 38.7285 77.8188C37.3178 76.9952 36.2434 75.6996 35.6951 74.1609C35.1468 72.6221 35.1597 70.9391 35.7317 69.4089C36.3037 67.8788 37.3979 66.6 38.8212 65.7983C40.2444 64.9965 41.9052 64.7234 43.5103 65.0271C45.1153 65.3309 46.5614 66.1919 47.5933 67.4583L42.3594 71.3832L40.4406 69.4645C40.1776 69.2217 39.8309 69.0902 39.4731 69.0974C39.1152 69.1045 38.774 69.2499 38.5209 69.503C38.2679 69.756 38.1225 70.0972 38.1153 70.4551C38.1082 70.8129 38.2397 71.1597 38.4825 71.4227L41.254 74.1942C41.4899 74.4303 41.8031 74.5734 42.136 74.5971C42.4689 74.6208 42.7992 74.5235 43.0661 74.3232L48.8949 69.9527C49.0681 70.5645 49.156 71.1972 49.156 71.8331L49.1507 71.8288Z" fill="#3B3735"/>
<path d="M49.1523 51.0658C49.1523 51.4333 49.2984 51.7858 49.5582 52.0457C49.8181 52.3056 50.1706 52.4516 50.5381 52.4516H60.2278C60.5953 52.4516 60.9478 52.3056 61.2077 52.0457C61.4675 51.7858 61.6135 51.4333 61.6135 51.0658C61.6135 50.6983 61.4675 50.3458 61.2077 50.0859C60.9478 49.8261 60.5953 49.6801 60.2278 49.6801H50.5381C50.3561 49.6801 50.1759 49.7159 50.0078 49.7856C49.8397 49.8552 49.6869 49.9573 49.5582 50.0859C49.4296 50.2146 49.3275 50.3674 49.2578 50.5355C49.1882 50.7036 49.1523 50.8838 49.1523 51.0658Z" fill="#3B3735"/>
<path d="M57.459 70.4441C57.0915 70.4441 56.739 70.5901 56.4791 70.85C56.2192 71.1099 56.0732 71.4623 56.0732 71.8299C56.0732 72.1974 56.2192 72.5499 56.4791 72.8098C56.739 73.0696 57.0915 73.2157 57.459 73.2157H61.6163C61.9838 73.2157 62.3363 73.0696 62.5962 72.8098C62.856 72.5499 63.0021 72.1974 63.0021 71.8299C63.0021 71.4623 62.856 71.1099 62.5962 70.85C62.3363 70.5901 61.9838 70.4441 61.6163 70.4441H57.459Z" fill="#3B3735"/>
<path d="M64.3782 75.9808H57.459C57.0915 75.9808 56.739 76.1268 56.4791 76.3867C56.2192 76.6465 56.0732 76.999 56.0732 77.3665C56.0732 77.7341 56.2192 78.0865 56.4791 78.3464C56.739 78.6063 57.0915 78.7523 57.459 78.7523H64.3804C64.7479 78.7523 65.1004 78.6063 65.3602 78.3464C65.6201 78.0865 65.7661 77.7341 65.7661 77.3665C65.7661 76.999 65.6201 76.6465 65.3602 76.3867C65.1004 76.1268 64.7479 75.9808 64.3804 75.9808H64.3782Z" fill="#3B3735"/>
</svg>
