<svg width="90" height="103" viewBox="0 0 90 103" fill="none" xmlns="http://www.w3.org/2000/svg">
<path d="M76.1962 43.7222L65.6178 87.3385L29.5303 74.5364L47.9393 17.689L48.2411 17.7844C48.6552 17.909 49.0897 17.9507 49.5199 17.9071C49.9501 17.8635 50.3674 17.7355 50.7481 17.5305C51.1287 17.3254 51.4652 17.0473 51.7382 16.712C52.0112 16.3767 52.2154 15.9908 52.3391 15.5765C52.4637 15.1625 52.5054 14.728 52.4619 14.2978C52.4183 13.8676 52.2903 13.4502 52.0852 13.0696C51.8801 12.689 51.602 12.3525 51.2667 12.0795C50.9314 11.8065 50.5456 11.6023 50.1313 11.4786L48.4635 10.9862L51.0525 2.44081C51.0743 2.36293 51.1116 2.29022 51.1621 2.22701C51.2125 2.1638 51.2751 2.11138 51.3463 2.07286C51.4174 2.03433 51.4955 2.0105 51.576 2.00277C51.6565 1.99503 51.7378 2.00356 51.8149 2.02784L83.3756 11.558C83.5277 11.6059 83.6563 11.7092 83.7358 11.8475C83.8152 11.9858 83.8398 12.149 83.8045 12.3045L78.1499 35.6057L77.2604 39.2907" fill="#FFB63B"/>
<path d="M76.1962 43.7222L65.6178 87.3385L29.5303 74.5364L47.9393 17.689L48.2411 17.7844C48.6552 17.909 49.0897 17.9507 49.5199 17.9071C49.9501 17.8635 50.3674 17.7355 50.7481 17.5305C51.1287 17.3254 51.4652 17.0473 51.7382 16.712C52.0112 16.3767 52.2154 15.9908 52.3391 15.5765V15.5765C52.4637 15.1625 52.5054 14.728 52.4619 14.2978C52.4183 13.8676 52.2903 13.4502 52.0852 13.0696C51.8801 12.689 51.602 12.3525 51.2667 12.0795C50.9314 11.8065 50.5456 11.6023 50.1313 11.4786L48.4635 10.9862L51.0525 2.44081C51.0743 2.36293 51.1116 2.29022 51.1621 2.22701C51.2125 2.1638 51.2751 2.11138 51.3463 2.07286C51.4174 2.03433 51.4955 2.0105 51.576 2.00277C51.6565 1.99503 51.7378 2.00356 51.8149 2.02784L83.3756 11.558C83.5277 11.6059 83.6563 11.7092 83.7358 11.8475C83.8152 11.9858 83.8398 12.149 83.8045 12.3045L78.1499 35.6057L77.2604 39.2907" stroke="#231F20" stroke-width="3" stroke-linecap="round" stroke-linejoin="round"/>
<path d="M59.9634 9.22314L82.6134 16.3549" stroke="#231F20" stroke-width="2" stroke-linecap="round" stroke-linejoin="round"/>
<path d="M50.1309 6.14172L56.7225 8.20658" stroke="#231F20" stroke-width="2" stroke-linecap="round" stroke-linejoin="round"/>
<path d="M73.8251 22.0677L70.3482 20.9467C69.1042 20.5456 67.7706 21.2289 67.3695 22.4729L66.5068 25.1487C66.1057 26.3927 66.789 27.7263 68.033 28.1274L71.51 29.2484C72.754 29.6495 74.0876 28.9662 74.4887 27.7222L75.3514 25.0464C75.7525 23.8024 75.0691 22.4688 73.8251 22.0677Z" fill="#F2C975" stroke="#231F20" stroke-width="2" stroke-miterlimit="10"/>
<path d="M56.6758 23.8043L46.7803 53.03" stroke="#231F20" stroke-width="2" stroke-linecap="round" stroke-linejoin="round"/>
<path d="M17 62.6079V95.8378C17 96.6765 17.33 97.4808 17.9174 98.0738C18.5048 98.6668 19.3015 99 20.1322 99H68.8678C69.6985 99 70.4952 98.6668 71.0826 98.0738C71.67 97.4808 72 96.6765 72 95.8378V26.1622C72 25.3235 71.67 24.5192 71.0826 23.9262C70.4952 23.3332 69.6985 23 68.8678 23H20.203C19.3723 23 18.5756 23.3332 17.9882 23.9262C17.4008 24.5192 17.0708 25.3235 17.0708 26.1622V55.8369" fill="#F2C975"/>
<path d="M17 62.6079V95.8378C17 96.6765 17.33 97.4808 17.9174 98.0738C18.5048 98.6668 19.3015 99 20.1322 99H68.8678C69.6985 99 70.4952 98.6668 71.0826 98.0738C71.67 97.4808 72 96.6765 72 95.8378V26.1622C72 25.3235 71.67 24.5192 71.0826 23.9262C70.4952 23.3332 69.6985 23 68.8678 23H20.203C19.3723 23 18.5756 23.3332 17.9882 23.9262C17.4008 24.5192 17.0708 25.3235 17.0708 26.1622V55.8369" stroke="#231F20" stroke-width="3" stroke-linecap="round" stroke-linejoin="round"/>
<path d="M55.1663 48.4556C57.3823 50.9816 58.6019 54.2284 58.5971 57.5887H52.6567C52.6706 55.476 52.3269 53.3762 51.6401 51.3782C52.9661 50.6014 54.157 49.6144 55.1663 48.4556Z" fill="#FFB63B" stroke="#231F20" stroke-width="2" stroke-linecap="round" stroke-linejoin="round"/>
<path d="M58.5818 57.5728C58.5837 60.9325 57.3644 64.1783 55.1509 66.7058C54.1395 65.543 52.9426 64.5555 51.6089 63.7832C52.3035 61.7876 52.6422 59.6855 52.6096 57.5728H58.5818Z" fill="#FFB63B" stroke="#231F20" stroke-width="2" stroke-linecap="round" stroke-linejoin="round"/>
<path d="M51.6239 63.7991C52.9617 64.5654 54.1595 65.5537 55.1659 66.7217C53.9062 68.1669 52.3614 69.3361 50.6285 70.1561C48.8956 70.9761 47.012 71.4291 45.0957 71.4868C46.6376 70.712 48.0094 69.6371 49.1304 68.3252C50.2514 67.0133 51.0991 65.4907 51.6239 63.8468V63.7991Z" fill="#FFB63B" stroke="#231F20" stroke-width="2" stroke-linecap="round" stroke-linejoin="round"/>
<path d="M52.6573 57.5728C52.6728 59.6856 52.329 61.7856 51.6408 63.7832C49.5583 62.587 47.1965 61.9623 44.7949 61.9725V57.5728H52.6573Z" fill="#FFB63B" stroke="#231F20" stroke-width="2" stroke-linecap="round" stroke-linejoin="round"/>
<path d="M51.624 51.3622C52.3171 53.3586 52.661 55.4595 52.6405 57.5727H44.6987V53.1729C47.1006 53.1854 49.4629 52.5606 51.5445 51.3622H51.624Z" fill="#FFB63B" stroke="#231F20" stroke-width="2" stroke-linecap="round" stroke-linejoin="round"/>
<path d="M45.0967 43.7222C46.6437 44.4924 48.0202 45.5655 49.1443 46.8779C50.2685 48.1904 51.1175 49.7153 51.6408 51.3623C49.5567 52.5564 47.1969 53.186 44.7949 53.1889V43.6587L45.0967 43.7222Z" fill="#FFB63B" stroke="#231F20" stroke-width="2" stroke-linecap="round" stroke-linejoin="round"/>
<path d="M55.1662 48.4556C54.1547 49.6184 52.9578 50.6059 51.6241 51.3781C51.1016 49.7308 50.2529 48.2055 49.1287 46.8929C48.0044 45.5804 46.6276 44.5075 45.0801 43.7381C47.0008 43.7839 48.8907 44.2316 50.6278 45.0523C52.365 45.8731 53.911 47.0486 55.1662 48.5032V48.4556Z" fill="#FFB63B" stroke="#231F20" stroke-width="2" stroke-linecap="round" stroke-linejoin="round"/>
<path d="M51.6249 63.7991C51.1 65.4452 50.2504 66.9694 49.1264 68.2816C48.0024 69.5938 46.6268 70.6675 45.0809 71.4391H44.7314V61.9089C47.1556 61.9213 49.5335 62.5733 51.6249 63.7991Z" fill="#FFB63B" stroke="#231F20" stroke-width="2" stroke-linecap="round" stroke-linejoin="round"/>
<path d="M44.747 43.7222V53.2524C42.3294 53.2534 39.9534 52.6238 37.8535 51.4258C38.3761 49.7828 39.2231 48.2614 40.3445 46.9517C41.4658 45.6421 42.8387 44.5709 44.3817 43.8017L44.747 43.7222Z" fill="#FFB63B" stroke="#231F20" stroke-width="2" stroke-linecap="round" stroke-linejoin="round"/>
<path d="M44.746 53.1888V57.5886H36.8042C36.7823 55.4701 37.1262 53.3637 37.8208 51.3622C39.9328 52.5588 42.3186 53.1881 44.746 53.1888Z" fill="#FFB63B" stroke="#231F20" stroke-width="2" stroke-linecap="round" stroke-linejoin="round"/>
<path d="M44.747 70.1685V71.4391H44.3817C42.8387 70.6699 41.4658 69.5987 40.3445 68.2891C39.2231 66.9794 38.3761 65.458 37.8535 63.815C39.9511 62.6114 42.3286 61.9814 44.747 61.9884V70.1685Z" fill="#FFB63B" stroke="#231F20" stroke-width="2" stroke-linecap="round" stroke-linejoin="round"/>
<path d="M44.3807 43.7222C42.8362 44.4893 41.4621 45.5597 40.3404 46.8696C39.2188 48.1796 38.3726 49.7021 37.8526 51.3464C36.5187 50.5808 35.3217 49.5985 34.3105 48.4397C35.5733 47.0017 37.1197 45.8404 38.8526 45.0286C40.5856 44.2168 42.4677 43.772 44.3807 43.7222Z" fill="#FFB63B" stroke="#231F20" stroke-width="2" stroke-linecap="round" stroke-linejoin="round"/>
<path d="M37.8526 63.7991C38.3751 65.4422 39.2222 66.9636 40.3435 68.2732C41.4649 69.5828 42.8378 70.654 44.3807 71.4233C42.4648 71.3637 40.5818 70.9098 38.8492 70.09C37.1165 69.2701 35.5715 68.1019 34.3105 66.6582C35.3225 65.5002 36.5194 64.518 37.8526 63.7515V63.7991Z" fill="#FFB63B" stroke="#231F20" stroke-width="2" stroke-linecap="round" stroke-linejoin="round"/>
<path d="M34.2952 48.4556C35.3029 49.6179 36.5006 50.6008 37.8372 51.3623C37.1426 53.3638 36.7987 55.4702 36.8206 57.5887H30.8643C30.8565 54.2279 32.0766 50.98 34.2952 48.4556Z" fill="#FFB63B" stroke="#231F20" stroke-width="2" stroke-linecap="round" stroke-linejoin="round"/>
<path d="M37.853 63.7991C36.5147 64.5584 35.3123 65.5354 34.2951 66.6899C32.0791 64.1639 30.8594 60.9171 30.8643 57.5569H36.8206C36.8019 59.6816 37.1512 61.7935 37.853 63.7991Z" fill="#FFB63B" stroke="#231F20" stroke-width="2" stroke-linecap="round" stroke-linejoin="round"/>
<path d="M44.7469 61.9248C42.3293 61.9238 39.9533 62.5533 37.8535 63.7514C37.1588 61.7499 36.815 59.6435 36.8369 57.5251H44.7787L44.7469 61.9248Z" fill="#FFB63B" stroke="#231F20" stroke-width="2" stroke-linecap="round" stroke-linejoin="round"/>
<path d="M41.3003 80.5721H59.9476" stroke="#231F20" stroke-width="2" stroke-linecap="round" stroke-linejoin="round"/>
<path d="M29.5303 80.5721H34.3112H37.8533" fill="#A7D2F0"/>
<path d="M29.5303 80.5721H34.3112H37.8533" stroke="#231F20" stroke-width="2" stroke-linecap="round" stroke-linejoin="round"/>
</svg>
